<svg xmlns="http://www.w3.org/2000/svg" viewBox="0 0 140.5 140.5"><link xmlns="http://www.w3.org/1999/xhtml" rel="stylesheet" href="../svg.css" type="text/css"/><defs><style>.cls-1{fill:none;stroke:#525252;stroke-width:0.5px;}</style></defs><g id="GLP" data-name="971 GUADELOUPE"><polyline class="cls-1" points="39.42 118.05 37.19 116.86 37.58 115.38 39.18 113.92 40.4 114.28 40.77 115.14 41.7 115.48 41.85 115.92 41.01 116.17 40.08 117.66 39.64 117.91 39.42 118.05"/><polyline class="cls-1" points="44.96 116.19 44 115.87 43.51 115.26 44.27 114.63 46.03 114.45 46.35 113.79 46.25 112.81 46.62 112.49 46.89 112.89 47.28 112.96 47.53 112.25 47.67 112.05 47.9 112.03 48.07 112.2 48.19 112.42 48.17 113.18 48.44 113.6 47.19 114.43 47.02 115.63 45.55 115.41 44.96 116.19"/><polyline class="cls-1" points="70.26 39.05 70.33 38.56 71.2 34.89 70.36 31.56 70.36 31.56 70.02 31.22 69.31 28.35 68.16 27.37 68.16 27.37 67.67 27.3 65.36 25.39 64.58 24.11 62.62 23.82 61.78 22.57 61.3 22.45 59.02 25.04 56.81 26.29 56.03 27.59 54.68 28.25 52.28 30.73 52.28 30.73 52.21 31.22 51.74 32.61 53.41 38.27 54.41 39.32 55.81 39.69 55.81 39.69 56.3 39.74 57.67 41.21 57.72 44.64 58.19 44.81 58.19 44.81 56.33 45.47 55.96 46.31 54.49 46.26 53.63 46.67 52.65 47.8 52.6 50.72 52.6 50.72 51.08 52.65 51.3 53.56 50.54 54.19 50.96 58.75 50.69 59.17 50.69 59.17 50.84 59.63 52.65 61.86 53.68 64.04 53.68 64.04 53.92 64.51 55.93 64.65 56.91 65.78 62.35 66.88 64.8 66.29 66.02 65.44 68.52 65.19 68.52 65.19 68.99 65 69.97 64.82 70.66 64.11 72.39 63.38 73.86 63.28 75.8 61.76 81.46 60.29 81.46 60.29 81.92 60.46 85.4 60.24 85.4 60.24 85.89 60.12 91.16 58.48 99.83 59.31 101.74 59.9 100.47 58.77 97.45 58.26 93.29 56.33 92.24 55.22 90.6 52.01 87.83 49.83 87.83 49.83 87.36 49.66 83.22 47.97 80.23 47.48 79.23 47.7 74.35 46.4 70.97 41.97 70.24 40.08 70.26 39.05"/><polyline class="cls-1" points="15.32 57.28 14.95 56.94 15.66 55.64 15.83 53.14 16.52 51.82 16.13 50.91 16.3 50.42 17.55 49.56 17.99 47.63 19.58 45.72 20.51 45.35 20.9 45.03 20.9 45.03 22.91 44.91 24.09 44.05 26.39 45.1 28.4 47.34 30.38 47.8 34.28 49.93 36.77 49.81 37.27 50.01 38 51.25 40.28 52.36 41.26 52.18 41.77 52.11 41.77 52.11 42.63 51.94 43.36 52.33 42.8 52.87 42.8 52.87 41.77 54.56 40.91 54.46 40.06 55.64 40.3 56.08 40.3 56.08 41.72 55.78 42.44 56.89 43.61 55.96 43.98 57.18 44.96 57.18 45.4 56.94 45.4 56.94 46.7 54.85 49.64 54.81 49.78 55.71 50.69 56.86 50.45 59.88 51.01 62.77 49.34 61.94 46.4 61.57 45.99 61.86 45.99 61.86 45.37 63.77 45.84 66.12 45.15 67.45 45.11 67.93 45.35 68.92 46.38 69.99 46.45 70.48 45.81 71.24 46.06 72.22 46.06 72.22 46.4 73.13 47.19 73.67 47.12 75.09 49.02 76.48 47.95 78 48.02 79.42 48.02 79.42 48.85 79.99 49.39 81.9 49.24 85.92 49.73 87.78 47.73 91.82 42.02 96.74 41.89 97.23 41.89 97.23 40.82 99.27 39.47 99.85 36.97 99.81 35.77 100.71 34.82 100.52 34.03 101.13 33.52 101.98 33.52 101.98 30.63 102.79 29.65 102.65 28.99 101.96 28.89 100 28.77 99.51 28.77 99.51 27.44 97.53 26.98 97.38 26.98 97.38 24.04 94.24 23.72 93.88 23.72 93.88 23.25 90.91 23.08 90.45 23.08 90.45 21.15 88.24 20.51 86.89 20.66 82.93 20.9 82.51 20.9 82.51 20.09 82.17 19.87 78.67 20.29 76.7 19.23 75.06 19.56 72.1 19.45 71.09 18.43 70.16 18.65 68.69 18.65 68.69 18.01 67.35 18.55 65.41 18.18 63.45 16.03 60.71 15.32 57.28"/><polyline class="cls-1" points="90.91 113.2 89.59 113.77 88.09 113.74 82.61 111.47 81.14 109.46 80.33 103.11 81.63 102.35 82.07 102.11 82.07 102.11 82.58 101.3 82.71 98.75 83.96 97.99 85.89 95.03 86.73 94.46 88.22 94.17 88.73 94.22 89.69 94.56 94.12 96.94 94.49 97.28 94.88 98.75 95.64 99.39 95.61 99.9 95.61 99.9 98.99 102.82 99.58 104.78 99.36 106.79 98.19 108.99 96.82 109.68 94.24 112.08 91.43 113.16 90.91 113.2"/><polyline class="cls-1" points="118.64 47.95 118.45 48.14 116.98 49.1 115.72 49.29 115.17 50.13 113.67 50.45 112.81 51.38 112.72 51.59 112.64 52.87 112.76 53.04 113.01 53.02 116 51.65 119.25 50.86 119.47 50.76 122.34 48.58 124.71 47.65 125.55 47.06 125.03 45.37 124.64 44.76 124.64 44.76 123.69 44.98 123.27 45.6 122.76 45.57 121.56 46.43 119.59 47.46 119.35 47.41 118.89 47.97 118.64 47.95"/><polyline class="cls-1" points="112.37 68.38 109.99 68.08 110.29 69.11 111.49 69.55 113.72 69.41 115.04 69.41 114.3 68.38 113.86 68.23 114.3 67.35 113.86 66.93 113.13 66.93 113.13 67.64 113.13 68.23 112.37 68.23 112.52 68.08"/></g></svg>