<svg xmlns="http://www.w3.org/2000/svg" viewBox="0 0 140.5 140.5"><link xmlns="http://www.w3.org/1999/xhtml" rel="stylesheet" href="../svg.css" type="text/css"/><defs><style>.cls-1{fill:none;stroke:#525252;stroke-width:0.5px;}</style></defs><g id="GUF" data-name="973 GUYANE"><polyline class="cls-1" points="116.81 61.07 116.92 61.61 116.47 63.12 116.52 64.23 116.51 64.35 116.1 65.98 115.89 66.5 115.83 66.59 115.32 67.18 114.79 67.37 113.73 68 113.1 68.22 112.39 68.93 111.91 69.69 111.93 70.69 111.72 71.2 111.68 71.31 111.68 71.31 111.31 71.99 110.67 72.43 110.59 72.76 109.64 73.52 109.1 74.35 109.02 74.43 108.31 74.74 108.06 75.1 107.98 75.17 107.65 75.19 107.55 75.25 107.48 75.46 107.48 75.68 107.56 76 107.72 76.3 107.72 76.51 107.42 76.98 106.88 77.08 106.57 76.99 106.4 77.13 106.4 77.13 106.43 77.24 106.22 77.3 105.89 77.75 105.82 78.29 105.5 78.56 105.46 79.1 105.36 79.42 105.44 79.62 105.41 79.95 105.14 80.44 104.46 81.01 103.75 82.25 103.68 82.34 103.68 82.34 103.15 83.32 102.85 83.45 102.81 83.78 102.31 84.91 101.43 85.93 99.46 89.21 99.4 89.31 99.25 89.61 99.19 90.17 98.55 90.8 97.63 92.08 97.42 92.07 97.17 91.7 96.96 91.67 96.09 92.37 96.03 92.47 95.73 93.32 95.68 93.99 94.81 94.1 94.71 94.14 94.64 94.23 94.45 95.22 94.09 95.42 94.33 95.78 94.29 96.43 94.73 96.93 94.75 97.26 94.72 97.37 94.12 98.58 94.07 98.68 93.75 99 93.47 100.09 93.43 100.19 93.14 100.8 92.86 101.16 92.82 101.26 92.74 101.59 92.73 101.7 92.82 101.9 93.01 102.03 93.07 102.11 93.05 102.22 92.83 102.61 92.75 102.68 92.64 102.7 92.31 102.69 91.9 102.88 91.75 103.03 91.69 103.12 90.11 106.24 90.1 106.79 89.89 107.43 89.84 107.53 89.36 108.28 88.45 110.21 88.27 110.34 87.94 110.34 87.84 110.39 87.76 110.47 87.72 110.57 87.69 110.68 87.69 110.79 87.73 110.89 87.93 111.16 87.95 111.27 87.88 111.6 88.32 111.93 88.38 112.02 88.42 112.24 88.43 112.36 88.42 112.47 88.39 112.58 88.12 113.07 88.06 113.16 87.74 113.22 87.55 113.5 87.54 113.61 87.58 113.83 87.8 114.22 87.76 114.44 87.69 114.53 86.74 115.32 86.36 115.87 85.81 115.95 85.71 116 85.64 116.08 85.63 116.2 85.67 116.3 85.87 116.57 85.85 116.68 85.78 116.76 85.67 116.81 85.13 116.94 84.97 117.09 84.92 117.19 84.84 117.63 84.47 118.19 84.47 118.53 84.44 118.64 84.37 118.85 84.31 118.94 84.22 119.01 83.91 119.13 83.47 119.19 82.86 119.48 82.75 119.54 82.67 119.61 82.43 119.98 81.69 120.23 81.28 120.43 80.6 120.79 80.38 121.05 79.99 121.27 79.89 121.31 78.9 121.54 78.65 121.88 78.34 121.95 78.28 122.38 77.88 122.56 77.8 122.64 77.56 123.15 77.28 123.3 77.22 123.84 76.7 124.7 75.81 124.67 75.45 125.09 75.35 125.14 75.03 125.24 74.25 125.37 74.14 125.36 73.64 125.11 72.22 124.78 72.11 124.73 71.83 124.54 71.76 124.46 71.45 123.98 71.29 123.83 71.1 123.72 70.99 123.69 70.77 123.66 69.53 123.69 69.42 123.7 67.32 124.08 66.81 124.31 66.07 124.1 65.36 124.81 65.27 124.87 65.05 124.9 64.96 124.84 64.94 124.74 65.45 123.86 65.73 123.37 65.81 123.29 66.35 122.89 66.5 122.72 66.59 122.4 66.56 122.29 66.44 122.1 66.17 121.91 65.62 121.79 64.97 121.35 64.16 120.97 63.95 120.57 63.9 120.24 63.89 120.13 63.89 120.13 63.8 120.06 63.38 120.22 63.16 119.84 62.6 119.84 62.44 119.99 62.44 120.32 62.16 120.8 61.2 121.11 60.88 121.57 60.8 121.65 60.69 121.69 60.13 121.7 59.74 121.92 59.63 121.93 59.2 121.85 59.21 122.06 59.41 122.32 59.31 122.51 59.21 122.57 59.1 122.6 58.55 122.56 57.76 122.65 57.33 122.57 56.69 122.76 55.75 122.38 55.21 122.39 54.73 121.94 54.21 122.1 53.81 121.93 53.25 121.94 53.15 121.89 53.1 121.8 53.2 121.49 53.22 121.37 53.17 121.28 53.08 121.22 52.97 121.17 52.75 121.15 52.49 121.36 52.38 121.38 52.27 121.37 52.16 121.35 52.08 121.28 52.01 121.06 51.83 120.93 51.51 121 51.19 120.89 51.08 120.91 50.8 121.09 50.69 121.08 50.6 121.02 50.32 120.83 50.25 120.73 50.3 120.64 50.5 120.53 50.64 120.23 50.92 120.05 50.96 119.95 50.93 119.84 50.86 119.76 50.3 119.42 50.44 119.15 50.37 119.1 49.71 119 49.6 119 49.49 119 49.37 119.03 49.27 119.06 49.19 119.13 49.09 119.33 48.78 119.35 48.67 119.39 48.47 119.5 48.38 119.56 48.3 119.64 48.15 119.94 47.66 120.21 47.57 120.28 47.52 120.38 47.56 120.48 47.65 120.54 47.97 120.64 48.03 120.85 47.95 120.93 47.2 121.16 47.09 121.19 46.77 121.08 46.22 121.04 46.11 121.05 46.02 121.11 45.98 121.21 45.83 121.98 45.35 122.45 45.25 122.5 45.05 122.44 44.96 122.13 44.86 122.08 44.53 122.02 44.42 122.03 44.33 122.09 44.26 122.17 44.22 122.28 44.19 122.5 44.18 122.61 44.18 122.73 44.18 122.84 44.19 122.95 44.29 123.28 44.27 123.38 44.2 123.6 44.14 123.69 44.05 123.75 43.61 123.83 42.78 124.17 42.68 124.23 42.49 124.34 42.39 124.39 42.3 124.46 42.21 124.53 41.91 124.87 41.82 124.93 41.72 124.95 41.6 124.93 40.64 124.62 40.42 124.61 40.32 124.66 40.23 124.72 39.76 125.21 39.57 125.85 39.58 126.19 39.04 126.75 38.97 127.06 38.4 126.76 37.87 126.95 37.77 126.94 37.66 126.9 37.56 126.84 37.47 126.78 37.38 126.7 37.31 126.62 36.8 126.02 36.73 125.92 36.51 125.41 36.36 125.26 36.26 125.27 35.3 125.88 35.2 125.91 35.09 125.94 34.98 125.93 34.46 125.73 33.98 125.99 33.87 126.02 33.76 126.01 32.47 125.6 31.93 125.74 31.71 125.74 31.62 125.69 31.6 125.59 31.64 125.38 31.56 125.3 31.14 125.17 31.04 125.1 30.97 125.02 30.93 124.91 30.91 124.8 30.94 124.69 31.16 124.3 31.09 124.11 30.98 124.06 30.87 124.07 29.68 124.37 29.57 124.38 29.46 124.36 29.25 124.28 29.15 123.96 29.04 123.92 28.93 123.93 28.39 124.09 28.28 124.1 28.17 124.09 27.95 124.04 27.52 123.88 27.43 123.83 27.35 123.75 27.24 123.43 26.76 123.18 26.58 122.66 26.04 122.58 25.94 122.52 25.46 122.23 25.38 122.16 25.37 122.06 25.45 121.99 26 121.88 26.09 121.81 26.12 121.71 26.07 121.61 25.68 121.42 25.61 121.33 25.55 121.23 25.51 121.13 25.54 120.69 25.49 120.58 25.36 120.4 25.26 120.35 25.15 120.32 24.59 120.3 24.48 120.3 23.93 120.44 23.83 120.42 23.73 120.36 23.65 120.28 23.59 120.19 23.59 120.08 23.62 119.98 23.67 119.87 23.73 119.78 23.8 119.69 24.22 119.55 24.34 119.54 24.44 119.56 25.69 120.08 25.8 120.09 26.24 120 26.34 119.94 26.37 119.84 26.3 119.17 26.38 118.84 26.52 118.41 26.57 118.31 27.01 117.66 27.08 117.57 27.37 117.22 27.45 117.14 27.53 117.07 27.64 117.02 27.74 117 28.53 117.07 29.17 116.89 29.26 116.81 29.84 116.12 30.14 115.64 30.52 115.23 30.69 114.82 31.27 114.3 31.33 114.2 31.48 113.9 31.52 113.79 31.48 113.23 31.52 113.12 31.85 112.82 32.64 110.6 32.69 110.5 33.05 110.07 33.13 109.99 33.52 109.75 33.59 109.67 33.64 109.57 33.73 109.25 33.89 109.08 33.82 108.76 34.03 108.12 34.09 108.02 34.54 107.71 34.9 107.27 35.5 106.78 35.58 106.69 35.64 106.6 35.7 106.5 35.74 106.4 36.01 105.43 35.93 104.88 35.94 104.76 35.98 104.66 36.07 104.6 36.29 104.61 36.39 104.56 36.47 104.48 36.52 104.39 36.67 103.96 36.69 103.86 36.66 103.75 36.45 103.48 36.41 103.38 36.29 103.06 36.28 102.95 36.45 102.42 36.46 101.86 36.87 101.34 37.01 100.36 36.59 99.58 36.76 99.17 36.78 99.07 36.76 98.95 36.56 98.31 36.32 98.07 36.25 97.86 36.27 97.75 36.33 97.66 36.65 97.33 36.68 97.22 36.62 96.9 36.79 96.36 36.79 96.25 36.77 95.91 36.76 95.81 36.74 95.69 36.71 95.58 36.65 95.48 36.58 95.4 36.48 95.35 36.37 95.34 36.26 95.37 36.02 95.6 35.91 95.58 35.83 95.52 35.76 95.42 35.73 95.32 35.78 95.1 35.65 94.69 36.16 93.19 36.21 93.1 36.29 93.02 36.71 92.91 36.96 92.53 37.37 92.14 37.59 91.63 37.79 91.36 37.86 91.27 38.29 90.92 38.55 90.55 38.64 90.47 39.01 90.23 39.12 90.2 39.23 90.22 39.63 90.4 39.75 90.39 40.04 90.24 40.1 90.14 40.33 89.27 40.63 87.96 40.69 87.41 41.81 86.14 41.7 85.5 41.99 84.77 42.06 83.76 42.25 83.12 42.1 82.58 42.12 81.8 42.28 81.5 42.77 81.04 42.91 80.62 42.23 79.11 42.02 79.06 41.7 79.19 41.47 79.57 40.82 79.39 40.74 79.21 40.79 79 40.68 78.8 39.94 78.31 39.86 78.23 39.72 77.92 39.88 77.27 39.82 76.93 39.08 75.67 39.08 75.67 39.01 75.59 38.8 75.33 38.58 74.69 38.36 74.43 37.93 74.29 37.15 74.21 36.51 74.38 36.29 74.3 36.21 74.23 36.08 74.05 36.07 73.83 36.08 73.71 36.34 73.22 36.33 73 36.27 72.9 36.19 72.83 36.08 72.77 35.01 72.45 34.93 72.38 34.5 71.72 34.43 71.28 34.32 71.09 33.8 70.67 33.32 70.04 33.1 69.4 32.97 68.29 32.81 67.99 31.87 66.88 31.33 66.47 31.77 64.63 32.31 63.92 32.31 63.92 32.32 63.81 32.33 63.59 32.25 63.51 31.93 63.42 31.16 62.76 31.07 62.71 30.51 62.63 30.4 62.59 30.33 62.5 30.05 61.76 30.05 61.66 30.15 61.1 30.21 60.89 30.53 60.05 30.17 58.77 30.38 57.22 30.08 56.76 29.47 56.46 29.37 56.41 29.27 56.48 29.06 56.74 28.76 56.65 28.74 56.53 28.78 56.2 29 55.34 28.99 55.23 28.77 54.36 28.85 54.03 28.7 53.61 28.55 52.05 28.66 51.5 29.08 50.84 29.34 50.22 29.56 49.01 29.56 49.01 29.5 48.91 29.16 48.33 29.27 45.87 29.15 45.68 28.95 45.58 28.84 45.54 28.28 45.53 28.18 45.48 28.01 45.19 27.85 44.77 27.84 44.65 28.02 43.9 27.87 41.09 27.86 40.98 27.61 40.11 27.62 40 27.78 39.7 27.85 39.61 28.31 39.3 28.38 39.21 28.54 38.91 28.69 38.49 28.72 38.38 28.74 37.48 28.88 37.05 28.81 36.38 28.84 36.27 29.17 35.83 29.48 34.98 29.48 34.43 29.51 34.32 29.56 34.22 29.71 34.06 30.14 33.92 30.24 33.87 30.43 33.76 30.8 33.49 30.87 33.41 30.97 33.21 31.05 32.77 31.59 32.38 31.65 32.29 31.74 31.85 32.16 31.33 32.96 29.85 33.5 29.28 33.77 28.79 34.28 28.35 34.28 28.35 34.36 28.27 34.98 28 35.49 27.57 36.02 27.41 36.39 26.99 36.88 26.74 37.22 26.16 38.08 25.46 38.45 24.9 38.8 24.08 38.94 23.9 39.67 23.21 40.45 22.11 41.04 21.6 41.41 21.04 42.1 20.46 42.35 19.96 42.53 18.97 42.44 18.42 42.43 17.64 42.43 17.64 42.4 17.55 42.16 16.85 42.16 16.85 42.15 16.74 42.19 16.3 42.8 15.24 43.01 14.61 43.53 14.04 43.65 13.74 44.09 13.78 44.5 13.63 45.61 13.67 46.1 13.44 47.76 14.06 47.86 14.1 47.86 14.1 49.27 14.41 51.26 15.68 52.77 16.42 54.43 17.09 55.09 17.51 56.16 17.83 58.03 18.83 58.13 18.89 58.13 18.89 60.42 19.37 61.2 19.33 62.25 19.69 62.84 20 63.04 19.92 63.26 19.94 63.38 19.95 63.38 19.95 63.98 20.22 64.53 20.32 64.87 20.28 65.01 19.52 65.08 19.43 65.36 19.25 65.69 19.2 66.55 19.42 66.78 19.65 67.44 19.72 67.54 19.77 67.54 19.77 67.68 19.72 67.86 19.98 68.14 19.93 68.14 19.93 68.08 19.84 68.25 19.75 68.58 20.01 69.33 20.16 70.2 20.61 70.29 20.68 70.41 20.86 70.42 21.08 70.42 21.08 70.77 21.51 70.92 21.93 71.66 22.43 71.75 22.48 72.38 22.7 73.14 22.5 73.58 22.52 73.89 23.1 75.04 23.5 75.64 23.98 75.96 24.09 77.33 25.04 77.41 25.1 77.41 25.1 79.25 26.27 79.56 26.28 79.81 26.5 79.87 26.59 79.87 26.59 80.72 26.82 80.92 26.91 81.11 27.14 81.35 27.02 81.47 27.33 82.22 28.45 82.25 28.77 82.64 28.97 82.85 29.22 82.84 29.34 82.84 29.34 83.55 29.86 84.15 30.15 84.28 30.43 84.68 30.63 85.16 31.86 85.5 32.13 85.44 32.35 85.45 32.45 85.54 32.52 86.2 32.53 86.52 32.85 86.59 33.06 86.65 33.15 86.65 33.15 87.21 33.96 87.27 34.05 87.27 34.05 87.78 34.49 88.61 34.82 88.99 35.23 89.83 35.76 90.52 36.33 91.48 37.27 92.64 38.12 93.09 38.88 93.6 39.48 93.89 39.66 94.19 39.54 94.28 39.48 94.28 39.48 94.55 39.28 94.53 39.07 94.64 38.89 95.07 38.84 95.46 38.68 95.68 38.7 95.9 38.94 96.22 38.98 96.26 39.19 96.33 39.28 96.33 39.28 96.99 39.84 97.03 39.95 96.89 40.11 96.96 40.31 97.38 40.65 97.65 41.11 97.73 41.2 97.73 41.2 97.73 41.2 98.3 41.69 98.61 41.6 98.89 41.78 99.18 42.24 99.28 42.66 99.71 43 99.92 43.05 99.92 43.05 100.01 42.81 100.4 43.04 101.41 44.38 101.49 44.45 102.26 44.92 103.52 45.36 104.02 45.63 104.39 46.04 105.2 46.62 107.76 47.47 107.87 47.5 107.87 47.5 108.61 47.36 109.6 47.56 110.03 47.49 111.44 48.75 111.51 48.83 112.11 49.77 112.33 50.4 112.48 50.56 112.43 50.66 112.46 50.76 112.46 50.76 112.61 51.18 112.56 51.73 112.46 51.93 112.57 52.12 112.56 52.23 112.42 52.53 112.55 53.07 112.58 53.17 112.94 54.1 113 54.19 113.09 54.26 113.4 54.14 113.5 54.1 113.5 54.1 113.06 54.56 112.96 54.88 113.03 55.21 113.84 55.98 114.15 56.08 114.59 56.02 114.77 56.14 114.74 56.46 114.06 57.34 114.08 57.78 114.42 58.96 114.87 59.74 115.14 59.91 115.26 60.33 115.41 60.5 116.59 60.84 116.7 60.87"/></g></svg>