<svg xmlns="http://www.w3.org/2000/svg" viewBox="0 0 140.5 140.5"><link xmlns="http://www.w3.org/1999/xhtml" rel="stylesheet" href="../svg.css" type="text/css"/><defs><style>.cls-1{fill:none;stroke:#525252;stroke-width:0.5px;}</style></defs><g id="REU" data-name="974 LA RÉUNION"><polyline class="cls-1" points="32.16 42.2 33.64 36.77 36.3 37.64 39.7 37.44 40.26 37.33 40.26 37.33 42.3 36.46 43.6 34.64 46.71 32.37 47.21 32.14 47.21 32.14 50.41 29.73 54.27 28.61 57.11 28.95 58.62 28.16 61.42 30.15 64.28 30.49 65.96 30.09 66.53 29.99 66.53 29.99 72.38 31.86 74.06 31.95 75.04 31.41 77.26 31.67 77.76 31.92 77.76 31.92 79.87 32.12 84.32 34.41 86 34.58 86 34.58 86.54 34.75 88.75 35.31 91.64 37.1 94.83 41.06 96.29 43.47 96.71 45.12 96.71 45.12 96.86 45.66 96.91 50.05 96.91 50.05 96.99 50.64 97.83 53.36 99.74 54.62 101.37 57 101.53 58.72 102.32 60.29 107.08 66.06 107.08 66.06 108.97 68.95 111.65 69.65 113.78 71.58 115.89 72.51 117.4 75.59 117.18 76.12 117.18 76.12 117.56 78.92 116.05 79.68 115.63 82.46 114.46 83.69 113.36 86.33 112.69 90.22 112.69 90.22 112.33 91.34 112.69 99.44 112.69 99.44 112.72 100.03 113 103.98 111.77 105.92 109.02 108.05 107.98 108.55 105.12 108.47 104.11 109.03 96.79 110.43 96.79 110.43 93.91 110.18 92.68 111.33 90.38 111.55 88.83 112.34 86.73 111.44 82.75 111.97 79.47 109.68 78.89 109.76 78.89 109.76 77.29 110.26 74.04 109.79 72.19 108.53 71.74 108.22 71.74 108.22 66.38 106.28 64.08 106.14 62.71 105.14 60.5 104.77 58.48 102.75 55.12 102.05 53.6 101.21 51.98 98.89 51.56 98.52 51.56 98.52 50.07 96.95 49.59 96.67 49.59 96.67 41.38 94.4 40.73 93.5 40.37 91.31 39.53 90.53 39.08 90.19 39.08 90.19 38.85 89.63 38.85 89.63 34.74 86.47 32.89 82.23 33.67 78.84 33.56 75.34 32.97 74.36 31.49 73.43 31.26 71.75 31.26 71.16 31.26 71.16 28.59 67.55 28.85 67.07 25.23 64.07 23.58 61.72 23.89 57.68 22.93 55.58 25.4 52.41 28.18 52.1 31.91 49.41 32.97 45.54 32.16 42.2"/></g></svg>