<svg xmlns="http://www.w3.org/2000/svg" viewBox="0 0 140.5 140.5"><link xmlns="http://www.w3.org/1999/xhtml" rel="stylesheet" href="../svg.css" type="text/css"/><defs><style>.cls-1{fill:none;stroke:#525252;stroke-width:0.5px;}</style></defs><g id="MTQ" data-name="972 MARTINIQUE"><polyline class="cls-1" points="92.49 105.92 94.69 107.23 98.64 103.28 100.66 103.7 100.76 104.38 100.76 104.38 100.18 106.13 99.08 106.61 98.5 107.71 97.54 107.33 97.54 107.33 97.16 107.91 97.5 109.97 95.96 113.75 97.3 116.21 99.42 118 100.11 118.1 102.1 117.59 103.81 115.39 105.05 114.74 104.81 113.47 103.88 112.48 104.74 111.76 104.74 111.76 105.32 112.1 106.39 112.51 108.51 109.12 109.1 106.4 110.47 104.93 108.72 102.94 108.72 102.94 109.1 102.39 110.4 102.42 111.05 101.26 109.99 98.75 108.75 98.24 108.62 97.59 108.62 97.59 108.72 96.9 108.51 94.91 106.59 94.67 106.39 94.02 108.27 91.48 105.94 90.56 105.94 90.56 106.52 90.22 107.21 90.22 107.41 89.05 106.08 87.47 107.28 84.35 104.94 84.62 103.4 83.25 103.85 81.53 103.33 80.3 103.33 80.3 103.44 79.65 102.3 79.03 100.28 79.2 99.15 78.45 99.15 78.45 99.08 77.73 99.32 76.5 98.36 75.46 98.4 73.72 96.34 73.78 94.42 72.96 94.86 69.6 92.84 67.81 94.69 67.5 94.69 67.5 96.27 66.31 96.1 64.52 94.18 65.14 90.78 64.8 89.37 66.34 88.11 66.86 85.77 64.42 85.29 63.18 85.77 62.67 85.77 62.67 86.32 61.4 87.66 61.47 89 59.93 91.7 59.17 92.53 58.04 89.99 55.06 88.14 56.02 87.01 55.47 87.66 54.2 87.66 54.2 87.83 53.61 85.88 53.92 84.61 52.28 85.74 48.4 87.66 47.65 88.34 47.71 90.26 48.54 91.67 50.11 93.73 50.42 94.62 49.53 94.04 48.36 94.38 47.75 94.38 47.75 95.38 47.2 94.55 46.1 94.58 44.87 95.89 44.42 97.61 45.59 98.16 45.24 98.08 43.19 95.72 41.95 93.46 43.56 92.98 44.04 92.98 44.04 91.6 44.28 89.92 45.55 87.14 45.35 85.22 46.21 83.64 47.65 82.27 50.01 81.21 49.33 79.77 45.48 79.15 45.11 79.15 45.11 77.47 42.26 74.28 39.72 72.8 36.02 70.81 36.29 70.2 35.95 70.2 35.95 69.61 34.03 67.97 32.21 66.15 31.59 66.15 31.59 65.29 30.6 64.13 31.32 62.82 31.08 57.98 27.65 57.37 27.37 57.37 27.37 56.03 27.03 54.59 25.45 49.41 23.36 49.41 23.36 48.76 23.09 44.85 22.4 41.45 22.71 41.45 22.71 40.8 22.84 38.84 23.26 34.21 25.79 34.21 25.79 33.53 26.03 30 32.07 29.45 34.13 29.86 37.59 32.4 41.81 32.4 41.81 33.08 41.92 34.32 42.47 35.69 44.87 39.16 48.26 39.7 50.25 39.23 51.52 39.23 51.52 39.09 52.21 38.5 55.6 38.33 56.91 41.56 62.94 41.56 62.94 42.07 63.39 44.23 66.79 44.23 66.79 44.75 68.05 46.56 69.05 48.14 71.24 51.37 72.34 51.37 72.34 53.66 73.85 56.58 77.76 56.58 77.76 57.3 77.87 62.17 77.55 63.3 78.34 66.08 78.69 67.11 76.56 67.11 76.56 68.93 75.7 70.13 75.84 70.78 77.76 69.92 80.33 71.85 82.26 72.25 84.96 73.53 85.38 74.14 85.65 74.14 85.65 74.83 85.62 76.37 87.81 76.37 87.81 75.17 87.4 74.21 88.91 73.77 89.36 73.77 89.36 73.35 89.91 68.52 89.97 66.63 89.12 66.63 87.23 64.06 86.44 60.7 89.6 60.01 89.56 60.01 89.56 59.29 89.46 55.76 93.71 55.34 95.77 57.68 97.08 57.51 99.1 58.84 100.64 58.71 103.39 61.11 104.59 62.17 106.37 63.51 106.82 64.09 106.47 64.09 106.47 65.16 105.62 65.77 103.66 68.83 101.98 70.89 101.81 72.05 102.56 74.07 102.73 75.1 103.66 77.4 102.39 77.82 101.05 77.82 101.05 78.4 101.4 78.94 103.39 79.53 103.7 81.48 103.18 83.23 104.28 87.32 104.83 90.47 103.45 91.81 103.59 91.81 103.59 91.7 104.28 92.49 105.92"/></g></svg>