<svg xmlns="http://www.w3.org/2000/svg" viewBox="0 0 140.5 140.5"><link xmlns="http://www.w3.org/1999/xhtml" rel="stylesheet" href="../svg.css" type="text/css"/><defs><style>.cls-1{fill:none;stroke:#525252;stroke-width:0.5px;}</style></defs><g id="MYT" data-name="976 MAYOTTE"><path class="cls-1" d="M48.14,29.27l-.2.41c-1.37.95-1.28,1-1.57.93a12,12,0,0,0-2.54-.46c-.16.16.78.49,1.28,1.39s.32,1-.11,1.58-.87,1.44-1.34,2.1-.88.57-1.67.71a4.48,4.48,0,0,1-2.12-.39l-.75.23a.74.74,0,0,0-.25,1.11c.48.7.06.86-.14,1.74A4.18,4.18,0,0,1,37,41.35c-1.12.58-1.57,1.09-1,1.19a13.52,13.52,0,0,1,2.66,0c1.5.26,1.38.38,1.65.51a.89.89,0,0,1,.37,1.18,2,2,0,0,0-.31.71,22.64,22.64,0,0,1-2.55,2.85c-.85.64-1.17,1.34-1,1.76s2.13,1.34,2.4,2.14.32,1.17.75.32a1.41,1.41,0,0,1,1.59-.88c.7,0,1.51.83,1.77,1.2a5.61,5.61,0,0,0,1.9,1.82c1.17.69,2,1.77,2.14,1.5s-.34-.74,1-.63,1.71.27,1.92.86.9.88,1.17.67a3.72,3.72,0,0,0,.58-1c.14-.25.39-.47,1-.31s.8,1.44.69,1.76-.57,1.58-.57,1.58-.4.86-.94,2-.32,2,.19,2.12a4.82,4.82,0,0,0,1.83.2c.75-.05.81-.28,1.61-.2s1.28.11,1,.59-.93.39-1.25.39-2.11.22-2.22.65-.43,2.25,0,3a5.49,5.49,0,0,1,.93,1.86,2.69,2.69,0,0,1,.08,1.38c-.07.45-1.52,3.63-1.1,4.22A4.84,4.84,0,0,0,55.94,76c1.1.28,2.16.63,2.16.63s.47.26-.23.53a22.55,22.55,0,0,1-3.48.41,4,4,0,0,0-1.28.87c-1,.89-1.26,1.16-1.59,1.27s-.53.11.54,1.07,1.35,2.78,2.64,2.83,1.31-.15,2.12,1A21.44,21.44,0,0,0,59.12,88c.8.75,2.22,2,3.23,2.77s1.27.86,2.1,1.57a3.34,3.34,0,0,1,1.16,2.38c.1.61.12.58.77,1.55a28.18,28.18,0,0,1,1.44,2.51,3.68,3.68,0,0,1,.66,1.89,3,3,0,0,1-.5,2.22,3.33,3.33,0,0,1-2.61,1.55,5.51,5.51,0,0,1-2-.08,4.49,4.49,0,0,1-2.65-1,18.7,18.7,0,0,0-3.32-1.88,11.08,11.08,0,0,1-2.44-1,2.87,2.87,0,0,1-.57-1.53A14.59,14.59,0,0,1,54.09,96a2.53,2.53,0,0,0-.85-2c-.49-.32-1.13-.21-2.46-.37a24.93,24.93,0,0,0-3.21-.22,9.38,9.38,0,0,0-2.26.38l-.09.69a3.24,3.24,0,0,1,1.45,1.81c.54,1.39,1.23,4.08,1.82,4.4s1.49.63,1.43,1.17,0,1.06.43,1,1-1.08,1.66-1,1.37.15,1.69.53.19,1.2.08,1.81a25.68,25.68,0,0,1-.63,3.12,9.05,9.05,0,0,1-2.38,2.61c-.66.42-2.24,1.24-2.72,1.56s-.91.7-.42.7a3.28,3.28,0,0,1,2.08.91,2,2,0,0,0,2.34.53,2.89,2.89,0,0,0,2-1.44,2.66,2.66,0,0,1,.93-1.06.88.88,0,0,1,.69,0c.51.18.47,2.79.15,3.33a4,4,0,0,0-.59,2.52,22.14,22.14,0,0,1-.31,2.64,5.54,5.54,0,0,0,.7,1.45c.21.42.58,1,.58-.06s0-.86.7-1.87.32-.67,1.06-1,.94-.13,1.52.09.62.17.84.81,0,1.91.43,2.5.1.38.9.11a2.21,2.21,0,0,0,1.18-1.07s1-.53,1.28,0,.48,1.18.75,1.76-.75,1.13.53,1.07,2.36-.21,2.36-.21c.21-.64,1.92-2.46,1.92-3s-.27-1.76-.27-2.51a1.58,1.58,0,0,1,.69-1.5c.43-.22.17-.32,1.29-.27s1.54-.37,2.08.59a15.7,15.7,0,0,1,1.17,4.06c0,.49,0,1.23.27,1.34s.64.37.8.1a9.79,9.79,0,0,0,.11-2c.06-.48-.11-.75.59-1.07a4.44,4.44,0,0,1,1.12-.38l1.28.59,1,.59a3.07,3.07,0,0,0,1.22-1.28c.49-.91.86-.33,1.4-1.5a8,8,0,0,1,.79-1.49,2.88,2.88,0,0,0-1.12,0c-.74.1.05,1.23-1.39.42s-1.81-.74-3.25-1.6-1.93-.8-2.14-1.39.69-.69-.37-1.87-1.39-1.12-1.82-2a2,2,0,0,1,0-1.87c.16-.43.32-.81,1-.81a9.33,9.33,0,0,1,1.81.22c.16,0,.7-.37.11-1.23S75,104.56,75,103.92a1.53,1.53,0,0,1,.6-1.23,2.8,2.8,0,0,1,1.22-.8,1,1,0,0,0,.86-.85c.1-.49,0-.8.24-1.12a2.63,2.63,0,0,0,.29-.51,3.66,3.66,0,0,1,1.67-.1,11.92,11.92,0,0,0,2.22.6,5.43,5.43,0,0,1,1.45.21S82.4,99.06,82,98.57s-1.07-.48-1.07-.9-.33-1.71-.33-2.09A7.46,7.46,0,0,1,81.15,94a14.12,14.12,0,0,1,1.73-1.22c.92-.54,2.2-1.19,3.06-1.83a1.93,1.93,0,0,0,1-1.61c0-.37.11-1.28.11-1.28l.74-.8.54-.81-.1-.6-.6-.14-1.28.48s-.53.43-.85-.37-.54-1.13-.38-1.39a4.41,4.41,0,0,0,.28-1.14l-.59-.16s-.82.14-1,.14a6.17,6.17,0,0,1-.94-.33l-.33-.59-.1-.92-.49-.74s-.69-.05-.91-.48-.74-2.41-.74-2.41l-.86-.53-1.19,0L78,76.72l.25-.49s1.71-.31,2.22-1a5.44,5.44,0,0,0,.65-1.12l-.65-.3.12-.78a2.49,2.49,0,0,1,.72-1.28,2.92,2.92,0,0,1,1.26-1,3.45,3.45,0,0,0,.63-.4s0-1.85,0-2.08c.09-.47,1-1.06,1-1.06s1.51-.49,1.83-1.24a10,10,0,0,1,.9-1.55,10.12,10.12,0,0,1,.75-.9,17.67,17.67,0,0,0,1.51-1.36,3.88,3.88,0,0,1,1.85-1.45,7.11,7.11,0,0,0,1.16-.42l.17-.64-.76-.89L91.28,58a2,2,0,0,0-.9-.69c-.15,0-.63.08-.55-.18a14.75,14.75,0,0,1,.55-1.49l.12-1.36s.39-.55.55-.28a4.81,4.81,0,0,1,.49,1.56,10.44,10.44,0,0,0,.15,1.07s.38.15.54-.06a3.68,3.68,0,0,0,.22-1.18l.6-1.23-.49-1.74s-.61-1.2-.71-1.36a10.28,10.28,0,0,0-2.71-2.34c-1.35-.7-2.73-.64-3.11-1.23a16.25,16.25,0,0,0-1.55-2.14c-.26-.21-1.92-1.11-1.92-1.11a15.27,15.27,0,0,0-2.08-.06,5.14,5.14,0,0,1-2-.21c-.47-.12-.84-.68-1.06-.73s-1.23.73-1.71.73a2.44,2.44,0,0,1-1.06-.22c-.21-.11-1-.7-1-.7l-1-1.23L72,41.57l-.43.24-.81,1.43s-.18.58-.39,1.08c-.13.32-.19,1-.35,1.18a1,1,0,0,1-1.16.39c-.74-.18-.85-.53-.85-.7S67.87,44,67.87,44a2.26,2.26,0,0,0-.85-.22,4,4,0,0,0-1.08.06l-.44.64L65,45a2.4,2.4,0,0,1-.65-.13c-.37-.15-.87-.5-2.63-1.24l.06-.53.29-.57,0-.75a2.17,2.17,0,0,0-.38-1.47c-.48-.53-1.14-1.39-1.14-1.39l-.2-1,.07-.76.72-.38s1.11,0,.8-.32a5.62,5.62,0,0,0-1.42-.8l-2-.64a2.51,2.51,0,0,1-1.07-.75,4.7,4.7,0,0,1-.57-1.34c-.06-.21.73-.21,0-.91a3.21,3.21,0,0,0-1.07-.8,3.7,3.7,0,0,0-1.34-.28l-.38-.45,0-.87s.27-.64.21-.8a13.64,13.64,0,0,0-2-1L51,27.49s-.71-.14-.66-.46a1.3,1.3,0,0,1,.52-.69,2.93,2.93,0,0,1,.84-.47A12,12,0,0,0,53,25.18a2.38,2.38,0,0,1,.54-.29,4.9,4.9,0,0,0,.71-.49s.09-.61.09-.77.16-1,.16-1l.64-.83-.56-.13-1.1.8s-.43.37-.75.59a3.37,3.37,0,0,1-.88.34s-.9.07-.86.35a2.45,2.45,0,0,1-.24,1.49,5.24,5.24,0,0,1-1.06.54l-.59.53-.69.91-.22,1.25Z"/><path class="cls-1" d="M90.91,66.72a7.39,7.39,0,0,0-.1,1.41c0,.38,0,1.09.26,1.36s.49.6.93.55.27,0,.76-.44.59-.33.59-1S93,67.86,93,67.7s-.38-.87-.38-.87l-.33-.65Z"/><path class="cls-1" d="M106.12,52.71a5.43,5.43,0,0,0,1.31,1.74c.81.65,1.51,1,1.51,1.79s-.32,1.14.33,1.63.21.27.65,1,1.14.61.65,1.36-.49-.38-.86.55-.6,1.19-.28,1.84.7.6.33,1.09-.17,1.19-1.19,1.19-1.42-.1-1.58.28a6.91,6.91,0,0,0-.65,2.28c0,.76.32.92.6,1.74l.26.81s-.49.33-1.19-.33-.76.11-1.25-1.14a15.65,15.65,0,0,1-.59-2c-.33-1-1.31-1.47-1.31-1.9s.49-.55-.6-1.3-2.28-1.75-3-2.34-2-1.41-2-1.41-.11-.65.33-.65S100.52,61,101,61.07s.05.06.76-.6.92-.65,1-1.63a4.72,4.72,0,0,1,.6-2.06l1.36-2,.6-1.57Z"/><path class="cls-1" d="M32.26,17.08s1.2.49,1.79.76,1.2,1.14,1.8,1.69,1.41.43,1,1-.92.55-1.46,1-.49,1.25-1.14,1.36a2.61,2.61,0,0,1-1.14-.05,3,3,0,0,0,0-1c-.11-.43-.11-.54-.71-1s-.92-.59-1.2-.43-.54.38-.76.21-.65-.05-.65-.59.06-.76.76-1,.55-.66.82-.87S32.26,17.08,32.26,17.08Z"/><path class="cls-1" d="M90.81,92.57h.86a2.92,2.92,0,0,1,.22.66c0,.16.11.21,0,.54s-.38,1.09-.66,1.09-.37,0-.6-.33a4.64,4.64,0,0,1-.37-1.14l.16-.65Z"/><path class="cls-1" d="M65.06,99l-.43.76a2.57,2.57,0,0,0-.28.38.35.35,0,0,0,.22.49.79.79,0,0,0,.82,0,1.41,1.41,0,0,0,.38-.65,5.32,5.32,0,0,0,0-.77l-.21-.37Z"/></g></svg>