<svg xmlns="http://www.w3.org/2000/svg" viewBox="0 0 140.5 140.5"><link xmlns="http://www.w3.org/1999/xhtml" rel="stylesheet" href="../svg.css" type="text/css"/><defs><style>.cls-1,.cls-2{fill:none;stroke:#525252;stroke-width:0.5px;}.cls-1{stroke-linejoin:round;}</style></defs><g id="NCL" data-name="98 NOUVELLE-CALÉDONIE"><path class="cls-1" d="M37.47,63.33a2.75,2.75,0,0,0-.14-.49C37.71,62.92,37.8,64,37.47,63.33Zm7.16,7.37c-.14,0-.3-.41-.37-.15-.24.2.14.25.11.47S45,70.8,44.63,70.7Zm.86.42c0-.1.32.07.36.1s-.24.53-.39.39,0-.14-.07-.15C45,71.39,45.42,71.33,45.49,71.12Zm59.71,34.45c.52.07,1,.47,1.43,0,0,0,.19.22.24.26.44.12.89-.81.84-1.11.22-.79-.47-1.17-.91-1.59-.07-.15-.11-.51-.28-.46-.53.11-.83-.32-1.3-.52-.17.08-.24-.13-.36,0s-.58.51-.54.78a1,1,0,0,1,0,1.1c.09.23.23.49.3.71-.22,0-.37.22-.1.31C104.72,105.29,104.77,105.61,105.2,105.57ZM118,78.34c.41.08.17.45.69.22.3-.14.42.17.73.09.61.07.37-.54.86-.52s.41-.29.73-.29.85.15.65-.41c-.32-.75.12-1.72,0-2.42.13-.42.45-.67.2-1.11,0-.48.66-.89.1-1.18-.16-.13-.21-.19-.34,0-.44.57-.79.28-1.37.46-.33.09-.43.39-.71.21-.82-.08-1.44-1.1-1.75-1.86-.21-.53.64-.68.51-1.22-.46.59-.94.61-1.54,1-.56-.09-.15,1.06-1.07.4-1.12-1.25-2.46-.33-.94.83a6,6,0,0,0,.57,2.41c1,.9.51,1.35-.23,2.15.68.25,2.14-.43,2.61.4-.08.33-.07.7.26.83ZM102.19,65.48c.15.24.72.93.91.42.21-.24.42-.11.62.07s.24-.45.48-.5c.62-.29-.1-1.2.06-1.7.12-.66,1.6-.53,1.22-1.29-.15-.23-.32-.07-.52-.12h0c0-.18-.14-.52-.36-.36s-.73-.36-1-.45c-.17-.33.26-.88.05-1.36-.25-1-1.47-.42-1.94-1.13-.05-.13-.11-.3-.26-.32s-.33.16-.57.15c-1-.33.91-.85.48-1.46a4.17,4.17,0,0,1-.29-2.68c.43-.35.78-.29.55-1h0c-1.17.24-1.48-2-3.43-.94.6,2-2.07-.12-2.87,1-.32.25,0,.81-.44,1,.2,1.25,2.13-.87,2.27.65a.55.55,0,0,1,.92.18c.63-.27.85,1,.36,1.16-.24.32,0,.63-.56.86-.32.13-.34.86-.67,1s-.44.22-.76.3a.73.73,0,0,1-1,0c-.2-.24-.08-.27-.4-.18s-.39,0-.56.05c.21.91,1.95.86,1,1.89,0,0,.93.56.93.81-.13.68.69.72.83,1.31.74,1.33,3.74-.37,3.59,1.53.36.16.79.22,1.16.37.08.09,0,.51.09.65Zm-19.28-20a1.77,1.77,0,0,1-.46,0h0c0-.14-.11-.26-.12-.4h0c.29,0,.71-.09.61.35Zm-2,7.72a1.59,1.59,0,0,1-1.67.31.1.1,0,0,0-.12.12c.4.05.48.56.94.24.4.06.54-.34.89-.46.19-.08.18-.11,0-.26Zm.77-.42A4.21,4.21,0,0,0,83.39,49c0-1,.92-1.58.8-2.55,0-.81-1.26-.64-1.09-1.35.23,0,.67,0,.8-.24.63-.6.78.45,1.06.87s1.36.63.81,1.22c-.16.27-.19-.08-.36-.2a1.15,1.15,0,0,0-1,.34c0,.36-.45.54-.55.9a.5.5,0,0,0,0,.54c-.06.28-.15.8-.22,1.15-.33.55.48,1.24.77.55a2,2,0,0,1,.34,0s0,0,0,0a2.17,2.17,0,0,1-.51.75c0,.5-.35.79-.48,1.27-.39.59-2.07,1.22-2.63.73h0A2.27,2.27,0,0,0,81.65,52.77ZM93,92.09a7.53,7.53,0,0,0,1.55,2.08c.21.09.33.18.26.4,0,0,0,0,0,0-.49-.44-.36,0-.24.36s-.15.7-.21,1a.76.76,0,0,1-.26.82c-.05.37-.52-.11-.58.22-.09.52-.37,0-.52.2s.14.26.14.34a.6.6,0,0,0-.35.37.77.77,0,0,1-1.2.3c.15,0,.84-.4.29-.4-.32.08-.61-.15-.16-.22,0-.19-.63-.65-.63-.86s.11-.37-.1-.27c-.46,0-.35.38-.21.65-.47.18-.23-.34-.51-.54-.24-.4.73-.63,0-.63-.4,0,0,.06-.25.31-.06.06-.25.22-.25.3,0,.24.28.09,0,.32l-.29.27c.21.27,0,.15-.08.33.63,0,.66.23.85.73h0c-.77-.38-.58-.61-1.33,0-.3.1-.35,0-.61-.11s-.53.06-.8-.34c-.15-.23.16-.55.38-.64s.39,0,.34-.18c-.46-.19-1.92.35-1.42-.79-.2-.15-.23.27-.27.31-.29,0-.31-.28-.18-.49-.35,0-1.07-.23-1.17-.55s0-.2-.17-.24c-.35-.09-.14,0-.3.28-.46.52-1.71-.39-1.44-.94-.12-.33-.34-.44-.73-.34-.25-.16-.61-.07-.86-.25-.26,0,.08.42-.25.38.23.43.18.47-.28.38a.32.32,0,0,0,0,.47c.12.17-.2.22-.33.09-.24,0-.08.75-.2.87-.12-.09-.48-.34-.48-.49s.19-.11.07-.32.1-.35-.19-.25c-.09,0-1.52,0-1-.56.31.07.51.5,1,.39.47.08.16-.36.52-.36a.89.89,0,0,0-.77-.18c.08-.2-.52-.42-.33-.41a1.3,1.3,0,0,0,1.11-.06c.1,0,.3.12.21-.1,0-.48-.51-.19-.61-.51,0-.1.37-.06,0-.24-.19,0,.11,0,.11-.09s-.14-.16-.15-.24c-.18-.45-.63,0-.89-.35-1.52-.28.12.58-.68.93.27-.69-.07-.35-.3,0,0,.4-.62.79-.41.2.26,0,.18-.48.1-.49s-.33.2-.34,0-.21-.12-.09-.3-.36-.18-.28-.29.27-.21.38-.37c.27-.72-.28-.07-.56,0s-.27-.7-.5-.16c.21.94-.72.12-1.08.27-.14-.32.16-.2-.35-.39s0-.19-.29-.55-1.22-.48-1.28-.8-.13-.32-.46-.28-.25.62-.59.13c-.38-.3.52-.54.73-.43.44.31,0-.46.17-.59s.1-.15-.08-.24-.37-.15-.09-.28c.13,0,.18.1.37.06,0-.13-.23-.31-.27-.47-.26-.29-.62-.09-.23-.53-.47.06-.26-.59,0-.81s-.08-.18-.12-.27,0,0,0,0c-.35-.53-1.16-.2-1.56-.44,0,0,0-.08,0-.1.36-.07,0-.61-.24-.61s.2-.64-.48-.34c-.46,0-.56.29-.42.67.08.17.05.78-.21.38-.07-.38-.27-.14-.43,0,.13.3.13.48-.19.66-.38-.26-.57-1.07-1.17-1.1a.86.86,0,0,1-.44-.12c-.34-.12,0-.38-.14-.66a2.51,2.51,0,0,0-2-.85c-.24.31-.24,0-.5.08s-.27-.21-.5-.23a.46.46,0,0,1,0-.26c.76.37,1.12.18.31-.45-.15-.2-.38-.13-.48-.36s-.34.08-.32-.23.27-.3.27-.41-.49.09-.46.29-.16.27-.37.19h0c0,.07-.12.5-.23.3s-.15-.25.05-.25.06-.18.09-.26c0-.33-.38-.55.11-.67.39-.66-1.73-.58-.71-1.33-.08,0-.08.09-.18,0s-.1-.42-.12-.49-.35.84-.43.88-.23.13-.15.28c.17.32-.33,0-.31-.12-.53,0,.17.61-.24.69-.07,0-.12-.37-.25-.51s.07-.42,0-.48c-.47-.28-.27-.3-.66,0s-.44-.41-.67-.52-.47-.34-.84-.16c-.18-.16-.28-.29-.53-.18a2.35,2.35,0,0,1-1.61-.93c-.68-.62-1-.53-.22-1.23-1.39.4.17-.57-1.18-.71-.38,1-1.86.08-2.52-.22S51,76.45,51,75.36c.24-.06.26-.28,0-.32,0-.66-.87.23-.73-.45-.16,0-.69.11-.52-.23,0-.17-.28-.24-.42-.18A1.7,1.7,0,0,1,48,73.11c-.1-.19-.09-.57-.29-.66-.39-.17.15-.52-.41-.52,0,0,.35-.48.22-.57s-.1-.24-.16-.5c-.11,0-.22.16-.36.17s-.6.89-.75.4-.83-1.68-1.34-1.06c-.12.07-.18-.13-.12-.19s.32-.06.22-.21-.13-.29-.21-.42-.14.24-.15.28c-.1.53-.61.16-.37-.21-.29-.72-.58.43-.31.64-.07,0-.12,0-.18,0,0,.22.16.37-.08.37s-.44.17-.58-.07L43,70.22c-.08-.13.2-.1.07-.35s.07-.19.13-.38c.07-.5-.51-.75-.86-.76,0-.53-.44-.8-.66-1.29-.15-.22-.38,0-.48-.39a1.42,1.42,0,0,0-.76-.88c0-.19.37-.34.05-.36s0-.25-.05-.39-.06-.44-.14-.63.41.07.26-.38c-.14-.25-.4,0-.32-.51-.21-.32-.76.48-.64-.24.21-.25.19-.17-.1-.27-.49,0,0-.33,0-.48s-.15-.14-.27-.11c-.34.09-.13.56-.44.58s-.61-.1-.49-.5a.26.26,0,0,0-.5-.07c-.43.27-1.09-.69-1-1a.5.5,0,0,1-.5-.46c.16,0,.25.08.41,0s.28.37.36,0-.37-.15-.45-.39c-.44,0-1,.15-.73-.48,0-.28.69.11.12-.65-.41-.47-1.18.23-.89-.8-.4-.17-.37.1-.43.38s-.65-.21-.78-.29c-.11-.31,0-.71-.55-.55,0,.2-.15.14-.25,0-.63-.2-.87-.24-.89-1-.07-.13-1.46-.18-1.27-.83,0,0,.05-.07,0-.07-.53-.08-.64-.69-1-1.06-.16-.57-1.08-.23-1-.91h0c.71.48,1.23,0,1.23-.82-.39-.2-1,0-1.17-.56v0c-.23,0-.37,0-.43-.28-.11-.61-.67-1-.95-1.56a.53.53,0,0,0-.18-.65c-.36-.17-.21-.6-.59-.79-.17-.12-.47.42-.36,0l.06-.14a0,0,0,0,0,0,0c-.45,0-1.12-.29-1.07-.87a2.32,2.32,0,0,1-.84-.89c-.43-.06-.28-.36-.64-.43.06-.48-.1-2-.83-2-.08-.17-.47-.52-.41-.86.26.1.58,0,.73.34.11.11.35,0,.45,0s-.2-.13.06-.18c.1,0,.05-.27.2-.37.4-.25-.49-.2-.23-.48.38-.45-.35-1-.67-1.3-.47-.48-.95-.28-1.5-.19h0a.88.88,0,0,1,.18-.57c.16-.33-.58-1-.54-.34-.31,0-.12.26.08.34,0,.27-.75.6-.94.52,0-.17-.22-.08-.17-.28.36-.06.17-.38-.07-.42,0-.25-.53-.44-.6-.6.21-.27.67-.71,1-.49,1.07.63.32-1,.2-1.08s0,0,0,0c.46,0,.09-.25.34-.46.07-.06,0-.2,0-.29-.11-.25-.84-1.37-1-.69,0,.39-.24.41-.22,0-.27-.36,0-.13.09-.37s-.1-.55-.44-.31c0,0-.23-.4-.07-.35s.06-.32,0-.39c-.13-.42.71.2.8-.11.08.08.66,1.16.76.63a3.16,3.16,0,0,0,1.75,2,2.19,2.19,0,0,0,.59,1c.3.2.15.78.63.83.26,0,.7.09.81.36.3.33.66-.19.95.29.29.84,1.2-.18,1.23.57a1.16,1.16,0,0,0,.46.52c-.15-.18-.47-1.17-.07-.74-.05-.91-.77-2,.66-1.23.26,0,.36-.17.53.09.31.61,1.15.23,1.45.74.58.16,1,.78,1.65.62,1.06.32,1.55,1.63,2.57,2-.74.63.71,1.37,1.26,1.49.66.37,1.12,1.18,1.93,1.39s1,1.08,1.6,1.53a8.12,8.12,0,0,1,1.55,2.08c.13.23-.1.56.19.42s.12.31.37.05,1.34.83,1.51,1c.37.45-.22.23-.1.44.2,0,.49,0,.38.35.32,0,.13-.44.47-.44.58.18,1.37.55,1.48,1.17h0c1.09.1,2.08,1,3.27.91.43,0,.24.18.5.3.05,0,.34-.19.59-.19.51.32.32,0,.76.48.18.07.27-.23.37-.12.21.3.84.76.29,1,.17.27.15.73-.11.87.19.27.17.39-.08.59.52-.07.53.22.89.53.54.15.61,1.15,1.18,1.34.72,0,2.68-.38,1.87.93a1,1,0,0,0,0,1c-.39,0-1.39.22-.44.22.36,0,.34.69.36,1s-.5-.08-.5.14c.87-.11,1.15,1.08,1.93,1.3.36.14.82.45.63.83h0c.49-.06,1-.41,1.46,0-.08.1-.4.6,0,.34.56-.33.8.56,1.29.7.28.17.23,0,.32.35.62,1.26-1.87-.75-1.55-.08.44.48,1.3.61,1.38,1.32.19.32.5.52.64.84.86.49,1.55.24,2.23.93,1-.44,1.36.12,1.76,1,0,.22.25.08.37.06-.33.71.29.08.62.4-.66.28.11,1.38.4,1.62.36-.06-.34-.69-.34-.84.15,0,.15-.14.15-.25s.48-.34.55-.11c-.09.36.68.94.36.33-.06-.07.26-.48,0-.72-.12-.72.82.88.87,1.12s0,.29.26.35a2.28,2.28,0,0,1,.68,1.3c-1.41-.54,0,.59.48.75.25.12-.1.2.09.35.73.61.56-.71.11-.87.38,0,.24-.3,0-.24s0-.17-.23-.27-.16-.66-.34-.94c.09-1,1,1,1.53,1a2.73,2.73,0,0,0,.78.25c.6.07-.74.67,0,.67.54,0,.24.27.4.58s-.11.51-.1.52c.7.48.49-.68.94-.42.72,0,.88.68,1.7,1.16,1.09.8,2.59,2.41,3.93,2.26.47,0,1.25.69.07.41-.26.27,1.62,1.73,1.88,1.07.25.08.34.53.43.7s.34,0,.49.12c.16.28.86.75.64,1s.46.79.75.9.54.17.08.28c1.15.44,1.48,2.25,2.84,2.4-.06.46.07.66.61.56,0,.3.35.5.64.59s0-.45.06-.57c.19.35.6.4.85.61a1.85,1.85,0,0,0,.34.43c0,.13-.6-.23-.47.09s-.51.27-.63.31c0,.69,1-.21,1.43.23.44.2.63-.25.59.38l-.06.73c.2,0,.29-.52.53-.35.57.14,1.12.25,1.68.4,1.38.29,3.19,1.68,2.6,3.29ZM19.22,35.6c-.14-.37,0-.82-.47-1-.42.3.19.8-.4.78h0c.72.36-.26.83.46,1.24,0-.22.65-.32.39,0,.11.16.17,0,.32-.11s.19,0,.16-.11a1,1,0,0,1-.05-.45C19.6,35.79,19.26,35.78,19.22,35.6Z"/></g></svg>