<svg xmlns="http://www.w3.org/2000/svg" viewBox="0 0 140.5 140.5"><link xmlns="http://www.w3.org/1999/xhtml" rel="stylesheet" href="../svg.css" type="text/css"/><defs><style>.cls-1,.cls-2{fill:none;stroke:#525252;stroke-width:0.5px;}.cls-1{fill-rule:evenodd;}</style></defs><g id="PYF" data-name="98 POLYNÉSIE FRANÇAISE"><path class="cls-1" d="M117.63,98.79a3,3,0,0,0,2.17,0c.29-.1,1-.84,1.23-.81.43.08.56-.15.81-.47a2.52,2.52,0,0,0,.37-1.13c.14-.25.19-.37.46-.49s.2-.3.27-.46.19-.16.27-.26c.34-.4,0-1.18.55-1.42.16-.07,0-.3,0-.42s-.17-.21-.12-.38.19-.2.22-.34-.09-.56,0-.81.3-.07.3-.41a3,3,0,0,1,0-.68.65.65,0,0,0,.12-.31c0-.15-.08-.26-.18-.37s-.18-.21-.22-.33a1.23,1.23,0,0,0-.19-.36c-.2-.35.11-.64.35-.81s.37-.2.13-.33-.4-.3-.27-.64a.75.75,0,0,0,0-.51c0-.22-.3-.42-.16-.71s-.11-.46,0-.68.2-.25.2-.39-.32-.4-.35-.63-.24-.16-.34-.21-.12-.16-.19-.23-.19-.41-.33-.48-.1-.21-.18-.33-.23-.37-.4-.42c-.35-.1-.37-.37-.71-.43a.41.41,0,0,1-.38-.35c.18-.31-1-.7-1.1-.85-.26-.33.12-1.27-.18-1.38s-.73-.33-.77-.25c-.18.42.25.56.1.87a2.16,2.16,0,0,1-.44.6c-.3.3-1.53-.25-2-.28a5.93,5.93,0,0,0-1.19-.21c-.41,0-.73-.34-1.1-.34s-.4-.17-.56-.37-.05-.46-.4-.27c-.53.3-.74.08-1.24,0a.78.78,0,0,1-.68-.54c-.11-.26-.1-.57-.45-.41a.68.68,0,0,1-.57-.1c-.33-.14-.41-.38-.79-.24s-.84,0-1.26.16c-.25.07-.5-.16-.58-.14s-.16.1-.27.12c-.4.11-.74.41-1.13.51a5.36,5.36,0,0,1-1.27-.19,4.69,4.69,0,0,1-2.17-1,1.73,1.73,0,0,0-.93-.45,2.59,2.59,0,0,1-1.2-.15c-.29-.1-.32-.25-.48-.47s-.6-.38-.69-.64a3.4,3.4,0,0,1,0-.72,1.51,1.51,0,0,1,.34-.62c.34-.44,0-1.11,0-1.57a3.7,3.7,0,0,1,0-.94,1.42,1.42,0,0,0,0-.89.45.45,0,0,1,0-.57c.2-.27.06-.5-.08-.74a1.15,1.15,0,0,1-.18-.77c0-.28-.2-.45-.34-.65a3.79,3.79,0,0,1-.26-.58c-.15-.32,0-.49,0-.8,0-.47-.29-.56,0-1,.09-.13.06-.19.07-.33a4.37,4.37,0,0,1,.12-.52,1.17,1.17,0,0,0-.13-.66c0-.16,0-.13.16-.18a1.21,1.21,0,0,0,.42-.32c.26-.14.16-.43.2-.66s.27-.46.25-.63a2.2,2.2,0,0,1-.12-.44,2.7,2.7,0,0,1,.12-.68c0-.1.12-.2.14-.3s0-.3,0-.45.38-.51.17-.82a1.21,1.21,0,0,1-.16-.86c0-.25-.16-.34-.33-.5a1.57,1.57,0,0,1-.39-.83c.07-.15-.11-.29,0-.44s.28-.18.22-.24c-.3-.3-.49.24-.6-.38,0-.26.15-.49.12-.76a2.44,2.44,0,0,0-.56-1,1.14,1.14,0,0,0-.65-.47c-.24-.09-.58-.11-.71-.35l-.24-.45a3.87,3.87,0,0,1-.43-.7c.05-.1-.36-.61-.43-.72s.18-.38-.07-.42-.27,0-.36-.06l-.48-.57a1.69,1.69,0,0,0-1-.62c-.21-.07-.43-.08-.64-.15a2.47,2.47,0,0,0-.65-.21c-.49-.05-1,.33-1.44.08a2.63,2.63,0,0,0-.93-.21c-.17,0-.37-.16-.54-.15-.36-.13-.43-.42-.64-.69s-.47-.31-.68-.63a.47.47,0,0,0-.52-.22c-.12,0-.32-.41-.45-.54a3.26,3.26,0,0,0-1.21-.63c-.29-.13-.21-.28-.53-.32a2.67,2.67,0,0,1-1.31-.19c-.36-.23-.55-.47-1-.53-.23,0-.34-.2-.57-.25s-.33-.43-.52,0c0,.11-1-.15-1.15-.19a3.94,3.94,0,0,1-.91,0l-.89,0c-.41,0-.81-.35-1.16-.08s-.46.07-.7,0A3.91,3.91,0,0,0,77,46.16c-.5-.19-.86-.74-1.33-.72a1.93,1.93,0,0,1-.5-.11c-.29,0-.28-.23-.46-.4s-.77-.5-.7-.16a1.23,1.23,0,0,0,.08.38c.24.48-.26,1-.51,1.34s-.21.47-.6.47c-.09.11-.13.18-.28.22s-.27,0-.24.1.46.16.15.37a.64.64,0,0,0-.23.26c-.09.26-.15.1-.32.06s-.2.21-.28.38c-.21.42-.54.14-.85.3a1,1,0,0,1-.61.13c-.26,0-.38-.2-.59-.24s-.41.28-.62.39-.35,0-.47,0-.32-.18-.45-.25-.24-.06-.35-.12c-.57-.27-.34-.14-.72.27s-.91.17-1.37,0c-.1.06-.81.25-.8.33,0,.38-.16.21-.43.33-.1.05-.41.25-.51.18s-.08-.26-.44,0c-.14.09-.47-.08-.2-.29s.65-.53.62-.67a4.89,4.89,0,0,0-.84.76c-.19.19-.87.64-1.12.84.17.2.41-.19.54-.19h0c0,.2-.16.18.07.34a.66.66,0,0,1,.27.33h0c.11,0,.31-.19.24-.3s-.24-.17-.3-.36c-.13-.42.47-.4.53,0s.48-.06.52.1a1.85,1.85,0,0,1,0,.47c0,.12,0,.31-.18.31s-.35.24-.54.35a1.44,1.44,0,0,1-.4.13,2,2,0,0,1-.47.11,1.19,1.19,0,0,1-.94.14,1.5,1.5,0,0,0-.37,0,.67.67,0,0,0-.2-.17c-.15-.08-.12-.28-.35-.19a2,2,0,0,0-.33.27,6.68,6.68,0,0,1-1.36.93c-.26.17-.3-.11-.41-.08a.5.5,0,0,1-.47-.07c-.16-.09-.11.24-.13.33s-.2.71-.39.74-.23.07-.36.27-.23.24,0,.33.51.22.46.43.05.3-.17.49-.31,0-.32.08,0,.23,0,.35.4.08.41.31-.05.65,0,1a1.37,1.37,0,0,0,.16.52c.07.14.26.32.26.46a4.33,4.33,0,0,0,.16.92,1.31,1.31,0,0,1,0,.52.48.48,0,0,1-.09.19c-.05.06-.2.12-.2.22a2.44,2.44,0,0,1,0,.81,3.72,3.72,0,0,0,0,.67c0,.23-.21.15-.28.28s.3.47.24.74a1.55,1.55,0,0,0,0,.37c0,.16.18.21.22.34a2.09,2.09,0,0,1,0,.42l-.23.64c-.06.18-.19.13,0,.28a4,4,0,0,1,.64.72c.24.3.61.5.86.81a3.14,3.14,0,0,0,.29.58l.47.92a2.79,2.79,0,0,1,.33,1c0,.15.14.55.2.71.3.79.95,1.41,1.24,2.21,0,.51.24,1,.3,1.49a13.82,13.82,0,0,1-.07,1.58,3.14,3.14,0,0,0,.32,1.63,1.84,1.84,0,0,1,.14.87c0,.31.1.61.1.92s.21.43.29.64-.19.91.34.93a1.3,1.3,0,0,1,.86.33,5.26,5.26,0,0,0,.65.38c.16.1.26.3.45.35s.45-.08.62.21.31.3.59.37.34-.15.52-.2a.69.69,0,0,1,.44.09c.35.13.34.37.74.14s1,.19,1.41.26.53-.16.81-.07.47.3.47.48c-.31.65,1.74.78,2.12.84a3.31,3.31,0,0,1,1.25.28,1.51,1.51,0,0,0,.53.15c.13,0,.27.19.4.19.53,0,1.11.09,1.37.62.06.13.23.21.26.36.06.36-.07.45.36.54s.76-.32,1.36-.22c.25.05.36.27.59.35s.49,0,.78-.06a1.52,1.52,0,0,0,.84-.18c.25-.12.27-.08.38-.33.2-.42.47-.2.82-.31.2-.07.37-.35.61-.35,0,.07,0,.36.15.32.32-.1.38-.26.76-.19a2.23,2.23,0,0,0,.85,0c.71-.06,1.11.9,1.47.41l.31-.43a1,1,0,0,1,1.1-.37c.29.12.23.3.58.17.65-.25.22-.38.42-1,.13-.4.65-.3,1-.36s.48-.15.73-.19.22.14.31.21,1.24-.87,1.41,0l1-.06a2.16,2.16,0,0,0,1.09-.46c.2-.11.41-.36.63-.39.38-.05.56.46.83-.14.12-.29.45-.45.49-.77S95,79,95.36,79c.07,0,.55.1.51-.07s-.34-.21-.36-.45.18-.32.37-.32.16.13.16.22a.78.78,0,0,0,.26,0c0-.2-.1-.52.18-.63a2.5,2.5,0,0,0,.25-.09c.4-.31.45-.15.89,0,0,0-.36.36-.38.48s.3.27.45.24.42-.12.46,0,.16.46-.1.47a2.33,2.33,0,0,0-.87.13,3.45,3.45,0,0,0-.48.2,3.35,3.35,0,0,0-.56.57c0,.06.48.45.58.49.53.2,1.61.54,1.53,1.29-.16.22-.27,0-.41.1,0,.3.94.95,1.17,1.12a1.86,1.86,0,0,1,.41,1.66c-.1.24.12.55.33.65A2,2,0,0,1,101,87.29a2.14,2.14,0,0,0,.2.47c0,.13,0,.64.17.67s.36,0,.36.28,0,.67-.25.81a.45.45,0,0,0-.22.32,4.49,4.49,0,0,1-.13.47,1,1,0,0,0,.51.88c.32.13.51,0,.82,0,.11,0,.22.39.28.48.2.3.48.51.65.81a1.4,1.4,0,0,0,.7.66c.26.15.7.54.64.87-.24.1-.15.07,0,.22.3.34.31.27.71.2s.73.43,1,.73,1,.25,1,.7c-.15.46.31.39.59.48.58.2,1.07-.24,1.59,0a3.8,3.8,0,0,0,1.55.56c.38,0,.3-.25.59-.37s.31.12.46.26.38.11.49.15a2.48,2.48,0,0,0,1.09.37c.43,0,.72,1,1.3.65s.52.32,1,.38c.09,0,.1.14.17.2a.38.38,0,0,0,.37.06.66.66,0,0,1,.43-.1.49.49,0,0,1,.15.1,1.14,1.14,0,0,0,.22.12ZM31.73,58.13c.18-.35-.45-.31-.13-.51a1.37,1.37,0,0,1,.68-.34c.2,0,.36-.37.44-.52a1.58,1.58,0,0,0,.19-.88,1,1,0,0,1,.14-.44c.17-.26.31-.3.31-.63s.21-.45.3-.61a1.11,1.11,0,0,0,.1-1.26c-.34-.49.22-.42.43-.56a2.35,2.35,0,0,0,.92-.46c.18-.18.46-.25.63-.4s0-.28.12-.42a1.1,1.1,0,0,0,.22-.61,1.28,1.28,0,0,0-.11-.88,1.11,1.11,0,0,1-.22-.38.82.82,0,0,0-.16-.37c-.2-.18-.55-.13-.55-.55,0-.11.26-.09.35-.11a1.67,1.67,0,0,0,.8-.24,1.5,1.5,0,0,0,.48-1.08c.1-.1,0-.52,0-.67a1.73,1.73,0,0,1,.4-.64c.12-.13.15-.3.26-.42.41-.49,1.71-.15,1.55-.95-.06-.28-.83-.43-1.09-.56a1.54,1.54,0,0,1-.6-.51c-.12-.2-.09-.47-.23-.7s-.85-1.18-1.24-.88a2.76,2.76,0,0,1-1,.47,5,5,0,0,1-.72.31,5.14,5.14,0,0,1-1.64.37,3.45,3.45,0,0,0-1.33.16,5,5,0,0,1-.82.18c-.15,0-.21.7-.26.85a3.21,3.21,0,0,1-.23,2.36c-.08.13-.43.07-.47,0s0-.61-.07-.85l-.2-.43c0-.32-.2-.57-.18-.91s0-.42-.28-.71-.26-.08-.45,0-.5,0-.74-.14A1.66,1.66,0,0,0,26,43.4a2.31,2.31,0,0,0-.53,1.1c-.1.31-.25.64-.32,1s.08.41.08.6a9.69,9.69,0,0,0,.38,1.07c.12.24.16.74-.26.66s-.31-.22-.45-.48-.26-.38-.34-.5,0-.32-.09-.46c-.19-.3-.21-.76-.45-1l-.64-.6a1.86,1.86,0,0,0-1.33-.43c-.54.18-.93-.28-1.54-.21a2.34,2.34,0,0,1-.56.12l-.84-.06a2.58,2.58,0,0,0-1.38.06c-.18.08-.32.22-.53.22a.64.64,0,0,0-.34.53,5.7,5.7,0,0,0-.27,1c0,.36.14.68.14,1.05,0,.14,0,.3.16.39.33.27.16.36.16.71a1.44,1.44,0,0,0,.58,1.08c.15.16.19.39.34.54a1.12,1.12,0,0,1,.27.46c.06.62,1.21,1.21,1.69,1.55.15.11.29.32.46.38a2.08,2.08,0,0,1,1.22.9c.17.33.46.14.67.39a1.35,1.35,0,0,1,.36.53c.09.36,0,.51.28.8a6,6,0,0,1,.57.82,2.45,2.45,0,0,0,1,.76c.27,0,.46-.47.63-.1s.08.91.36,1.29c.43.57.88-.53,1.16-.53l.37.79c.06.12-.17.2,0,.34s.34.28.51.2a2.4,2.4,0,0,1,1.19,0c.29.09.48.29.82.3s.74-.36,1.25-.25c.24,0,.79.12.95-.14ZM17.22,43.29c-.08,0-.2,0-.27.11s0,.14.06.17.09,0,.13.07.25-.28.18-.29Zm-.65.41c-.08-.05-.05-.25-.21-.2a.57.57,0,0,0-.22.19.27.27,0,0,0,0,.12s0,.07,0,.08.11.09.22.07a1.74,1.74,0,0,1,.34-.05c.07,0,.24,0,.24-.08s-.05,0-.09,0a.75.75,0,0,1-.21,0Z"/><path class="cls-2" d="M117.63,98.79a3,3,0,0,0,2.17,0c.29-.1,1-.84,1.23-.81.43.08.56-.15.81-.47a2.52,2.52,0,0,0,.37-1.13c.14-.25.19-.37.46-.49s.2-.3.27-.46.19-.16.27-.26c.34-.4,0-1.18.55-1.42.16-.07,0-.3,0-.42s-.17-.21-.12-.38.19-.2.22-.34-.09-.56,0-.81.3-.07.3-.41a3,3,0,0,1,0-.68.65.65,0,0,0,.12-.31c0-.15-.08-.26-.18-.37s-.18-.21-.22-.33a1.23,1.23,0,0,0-.19-.36c-.2-.35.11-.64.35-.81s.37-.2.13-.33-.4-.3-.27-.64a.75.75,0,0,0,0-.51c0-.22-.3-.42-.16-.71s-.11-.46,0-.68.2-.25.2-.39-.32-.4-.35-.63-.24-.16-.34-.21-.12-.16-.19-.23-.19-.41-.33-.48-.1-.21-.18-.33-.23-.37-.4-.42c-.35-.1-.37-.37-.71-.43a.41.41,0,0,1-.38-.35c.18-.31-1-.7-1.1-.85-.26-.33.12-1.27-.18-1.38s-.73-.33-.77-.25c-.18.42.25.56.1.87a2.16,2.16,0,0,1-.44.6c-.3.3-1.53-.25-2-.28a5.93,5.93,0,0,0-1.19-.21c-.41,0-.73-.34-1.1-.34s-.4-.17-.56-.37-.05-.46-.4-.27c-.53.3-.74.08-1.24,0a.78.78,0,0,1-.68-.54c-.11-.26-.1-.57-.45-.41a.68.68,0,0,1-.57-.1c-.33-.14-.41-.38-.79-.24s-.84,0-1.26.16c-.25.07-.5-.16-.58-.14s-.16.1-.27.12c-.4.11-.74.41-1.13.51a5.36,5.36,0,0,1-1.27-.19,4.69,4.69,0,0,1-2.17-1,1.73,1.73,0,0,0-.93-.45,2.59,2.59,0,0,1-1.2-.15c-.29-.1-.32-.25-.48-.47s-.6-.38-.69-.64a3.4,3.4,0,0,1,0-.72,1.51,1.51,0,0,1,.34-.62c.34-.44,0-1.11,0-1.57a3.7,3.7,0,0,1,0-.94,1.42,1.42,0,0,0,0-.89.45.45,0,0,1,0-.57c.2-.27.06-.5-.08-.74a1.15,1.15,0,0,1-.18-.77c0-.28-.2-.45-.34-.65a3.79,3.79,0,0,1-.26-.58c-.15-.32,0-.49,0-.8,0-.47-.29-.56,0-1,.09-.13.06-.19.07-.33a4.37,4.37,0,0,1,.12-.52,1.17,1.17,0,0,0-.13-.66c0-.16,0-.13.16-.18a1.21,1.21,0,0,0,.42-.32c.26-.14.16-.43.2-.66s.27-.46.25-.63a2.2,2.2,0,0,1-.12-.44,2.7,2.7,0,0,1,.12-.68c0-.1.12-.2.14-.3s0-.3,0-.45.38-.51.17-.82a1.21,1.21,0,0,1-.16-.86c0-.25-.16-.34-.33-.5a1.57,1.57,0,0,1-.39-.83c.07-.15-.11-.29,0-.44s.28-.18.22-.24c-.3-.3-.49.24-.6-.38,0-.26.15-.49.12-.76a2.44,2.44,0,0,0-.56-1,1.14,1.14,0,0,0-.65-.47c-.24-.09-.58-.11-.71-.35l-.24-.45a3.87,3.87,0,0,1-.43-.7c.05-.1-.36-.61-.43-.72s.18-.38-.07-.42-.27,0-.36-.06l-.48-.57a1.69,1.69,0,0,0-1-.62c-.21-.07-.43-.08-.64-.15a2.47,2.47,0,0,0-.65-.21c-.49-.05-1,.33-1.44.08a2.63,2.63,0,0,0-.93-.21c-.17,0-.37-.16-.54-.15-.36-.13-.43-.42-.64-.69s-.47-.31-.68-.63a.47.47,0,0,0-.52-.22c-.12,0-.32-.41-.45-.54a3.26,3.26,0,0,0-1.21-.63c-.29-.13-.21-.28-.53-.32a2.67,2.67,0,0,1-1.31-.19c-.36-.23-.55-.47-1-.53-.23,0-.34-.2-.57-.25s-.33-.43-.52,0c0,.11-1-.15-1.15-.19a3.94,3.94,0,0,1-.91,0l-.89,0c-.41,0-.81-.35-1.16-.08s-.46.07-.7,0A3.91,3.91,0,0,0,77,46.16c-.5-.19-.86-.74-1.33-.72a1.93,1.93,0,0,1-.5-.11c-.29,0-.28-.23-.46-.4s-.77-.5-.7-.16a1.23,1.23,0,0,0,.08.38c.24.48-.26,1-.51,1.34s-.21.47-.6.47c-.09.11-.13.18-.28.22s-.27,0-.24.1.46.16.15.37a.64.64,0,0,0-.23.26c-.09.26-.15.1-.32.06s-.2.21-.28.38c-.21.42-.54.14-.85.3a1,1,0,0,1-.61.13c-.26,0-.38-.2-.59-.24s-.41.28-.62.39-.35,0-.47,0-.32-.18-.45-.25-.24-.06-.35-.12c-.57-.27-.34-.14-.72.27s-.91.17-1.37,0c-.1.06-.81.25-.8.33,0,.38-.16.21-.43.33-.1.05-.41.25-.51.18s-.08-.26-.44,0c-.14.09-.47-.08-.2-.29s.65-.53.62-.67a4.89,4.89,0,0,0-.84.76c-.19.19-.87.64-1.12.84.17.2.41-.19.54-.19h0c0,.2-.16.18.07.34a.66.66,0,0,1,.27.33h0c.11,0,.31-.19.24-.3s-.24-.17-.3-.36c-.13-.42.47-.4.53,0s.48-.06.52.1a1.85,1.85,0,0,1,0,.47c0,.12,0,.31-.18.31s-.35.24-.54.35a1.44,1.44,0,0,1-.4.13,2,2,0,0,1-.47.11,1.19,1.19,0,0,1-.94.14,1.5,1.5,0,0,0-.37,0,.67.67,0,0,0-.2-.17c-.15-.08-.12-.28-.35-.19a2,2,0,0,0-.33.27,6.68,6.68,0,0,1-1.36.93c-.26.17-.3-.11-.41-.08a.5.5,0,0,1-.47-.07c-.16-.09-.11.24-.13.33s-.2.71-.39.74-.23.07-.36.27-.23.24,0,.33.51.22.46.43.05.3-.17.49-.31,0-.32.08,0,.23,0,.35.4.08.41.31-.05.65,0,1a1.37,1.37,0,0,0,.16.52c.07.14.26.32.26.46a4.33,4.33,0,0,0,.16.92,1.31,1.31,0,0,1,0,.52.48.48,0,0,1-.09.19c-.05.06-.2.12-.2.22a2.44,2.44,0,0,1,0,.81,3.72,3.72,0,0,0,0,.67c0,.23-.21.15-.28.28s.3.47.24.74a1.55,1.55,0,0,0,0,.37c0,.16.18.21.22.34a2.09,2.09,0,0,1,0,.42l-.23.64c-.06.18-.19.13,0,.28a4,4,0,0,1,.64.72c.24.3.61.5.86.81a3.14,3.14,0,0,0,.29.58l.47.92a2.79,2.79,0,0,1,.33,1c0,.15.14.55.2.71.3.79.95,1.41,1.24,2.21,0,.51.24,1,.3,1.49a13.82,13.82,0,0,1-.07,1.58,3.14,3.14,0,0,0,.32,1.63,1.84,1.84,0,0,1,.14.87c0,.31.1.61.1.92s.21.43.29.64-.19.91.34.93a1.3,1.3,0,0,1,.86.33,5.26,5.26,0,0,0,.65.38c.16.1.26.3.45.35s.45-.08.62.21.31.3.59.37.34-.15.52-.2a.69.69,0,0,1,.44.09c.35.13.34.37.74.14s1,.19,1.41.26.53-.16.81-.07.47.3.47.48c-.31.65,1.74.78,2.12.84a3.31,3.31,0,0,1,1.25.28,1.51,1.51,0,0,0,.53.15c.13,0,.27.19.4.19.53,0,1.11.09,1.37.62.06.13.23.21.26.36.06.36-.07.45.36.54s.76-.32,1.36-.22c.25.05.36.27.59.35s.49,0,.78-.06a1.52,1.52,0,0,0,.84-.18c.25-.12.27-.08.38-.33.2-.42.47-.2.82-.31.2-.07.37-.35.61-.35,0,.07,0,.36.15.32.32-.1.38-.26.76-.19a2.23,2.23,0,0,0,.85,0c.71-.06,1.11.9,1.47.41l.31-.43a1,1,0,0,1,1.1-.37c.29.12.23.3.58.17.65-.25.22-.38.42-1,.13-.4.65-.3,1-.36s.48-.15.73-.19.22.14.31.21,1.24-.87,1.41,0l1-.06a2.16,2.16,0,0,0,1.09-.46c.2-.11.41-.36.63-.39.38-.05.56.46.83-.14.12-.29.45-.45.49-.77S95,79,95.36,79c.07,0,.55.1.51-.07s-.34-.21-.36-.45.18-.32.37-.32.16.13.16.22a.78.78,0,0,0,.26,0c0-.2-.1-.52.18-.63a2.5,2.5,0,0,0,.25-.09c.4-.31.45-.15.89,0,0,0-.36.36-.38.48s.3.27.45.24.42-.12.46,0,.16.46-.1.47a2.33,2.33,0,0,0-.87.13,3.45,3.45,0,0,0-.48.2,3.35,3.35,0,0,0-.56.57c0,.06.48.45.58.49.53.2,1.61.54,1.53,1.29-.16.22-.27,0-.41.1,0,.3.94.95,1.17,1.12a1.86,1.86,0,0,1,.41,1.66c-.1.24.12.55.33.65A2,2,0,0,1,101,87.29a2.14,2.14,0,0,0,.2.47c0,.13,0,.64.17.67s.36,0,.36.28,0,.67-.25.81a.45.45,0,0,0-.22.32,4.49,4.49,0,0,1-.13.47,1,1,0,0,0,.51.88c.32.13.51,0,.82,0,.11,0,.22.39.28.48.2.3.48.51.65.81a1.4,1.4,0,0,0,.7.66c.26.15.7.54.64.87-.24.1-.15.07,0,.22.3.34.31.27.71.2s.73.43,1,.73,1,.25,1,.7c-.15.46.31.39.59.48.58.2,1.07-.24,1.59,0a3.8,3.8,0,0,0,1.55.56c.38,0,.3-.25.59-.37s.31.12.46.26.38.11.49.15a2.48,2.48,0,0,0,1.09.37c.43,0,.72,1,1.3.65s.52.32,1,.38c.09,0,.1.14.17.2a.38.38,0,0,0,.37.06.66.66,0,0,1,.43-.1.49.49,0,0,1,.15.1,1.14,1.14,0,0,0,.22.12ZM31.73,58.13c.18-.35-.45-.31-.13-.51a1.37,1.37,0,0,1,.68-.34c.2,0,.36-.37.44-.52a1.58,1.58,0,0,0,.19-.88,1,1,0,0,1,.14-.44c.17-.26.31-.3.31-.63s.21-.45.3-.61a1.11,1.11,0,0,0,.1-1.26c-.34-.49.22-.42.43-.56a2.35,2.35,0,0,0,.92-.46c.18-.18.46-.25.63-.4s0-.28.12-.42a1.1,1.1,0,0,0,.22-.61,1.28,1.28,0,0,0-.11-.88,1.11,1.11,0,0,1-.22-.38.82.82,0,0,0-.16-.37c-.2-.18-.55-.13-.55-.55,0-.11.26-.09.35-.11a1.67,1.67,0,0,0,.8-.24,1.5,1.5,0,0,0,.48-1.08c.1-.1,0-.52,0-.67a1.73,1.73,0,0,1,.4-.64c.12-.13.15-.3.26-.42.41-.49,1.71-.15,1.55-.95-.06-.28-.83-.43-1.09-.56a1.54,1.54,0,0,1-.6-.51c-.12-.2-.09-.47-.23-.7s-.85-1.18-1.24-.88a2.76,2.76,0,0,1-1,.47,5,5,0,0,1-.72.31,5.14,5.14,0,0,1-1.64.37,3.45,3.45,0,0,0-1.33.16,5,5,0,0,1-.82.18c-.15,0-.21.7-.26.85a3.21,3.21,0,0,1-.23,2.36c-.08.13-.43.07-.47,0s0-.61-.07-.85l-.2-.43c0-.32-.2-.57-.18-.91s0-.42-.28-.71-.26-.08-.45,0-.5,0-.74-.14A1.66,1.66,0,0,0,26,43.4a2.31,2.31,0,0,0-.53,1.1c-.1.31-.25.64-.32,1s.08.41.08.6a9.69,9.69,0,0,0,.38,1.07c.12.24.16.74-.26.66s-.31-.22-.45-.48-.26-.38-.34-.5,0-.32-.09-.46c-.19-.3-.21-.76-.45-1l-.64-.6a1.86,1.86,0,0,0-1.33-.43c-.54.18-.93-.28-1.54-.21a2.34,2.34,0,0,1-.56.12l-.84-.06a2.58,2.58,0,0,0-1.38.06c-.18.08-.32.22-.53.22a.64.64,0,0,0-.34.53,5.7,5.7,0,0,0-.27,1c0,.36.14.68.14,1.05,0,.14,0,.3.16.39.33.27.16.36.16.71a1.44,1.44,0,0,0,.58,1.08c.15.16.19.39.34.54a1.12,1.12,0,0,1,.27.46c.06.62,1.21,1.21,1.69,1.55.15.11.29.32.46.38a2.08,2.08,0,0,1,1.22.9c.17.33.46.14.67.39a1.35,1.35,0,0,1,.36.53c.09.36,0,.51.28.8a6,6,0,0,1,.57.82,2.45,2.45,0,0,0,1,.76c.27,0,.46-.47.63-.1s.08.91.36,1.29c.43.57.88-.53,1.16-.53l.37.79c.06.12-.17.2,0,.34s.34.28.51.2a2.4,2.4,0,0,1,1.19,0c.29.09.48.29.82.3s.74-.36,1.25-.25c.24,0,.79.12.95-.14Z"/></g></svg>