<svg xmlns="http://www.w3.org/2000/svg" viewBox="0 0 140.5 140.5"><link xmlns="http://www.w3.org/1999/xhtml" rel="stylesheet" href="../svg.css" type="text/css"/><defs><style>.cls-1,.cls-2{fill:none;stroke:#525252;stroke-width:0.5px;}.cls-1{fill-rule:evenodd;}</style></defs><g id="BLM" data-name="977 SAINT-BARTHELEMY"><path class="cls-1" d="M110.76,83.55c0,1.3,1.54,4.56-.58,4.63-1.21-.35-.84-2.14-2.06-2.56-.68-.34-2.45.57-3,1s-1.22,2-2,2.14c-4.69.39-6.71,1.76-5.8,6.78.38,1-1,.43-.28,1.4a12.41,12.41,0,0,1-2.05.88c-.18.17-.37.29-.56.06-.46-.66-1.42-.86-1.68-1.66.07-1,.71-2.42-.89-1.39-.85.76-.75-1-.94-1.42-.72-.66-4,0-4.23,1a3.15,3.15,0,0,1-.47,1.48c0,1,.56,2.08-.94,1.61-.15-.32-.52-1.44-.9-.68-.18.68,0,2.72-.95,2.67-.51-.53-.54-1.41-1.34-1.68-.54-.62,0-1.5-1-1.69-.24-.86-.57-.72-1.31-.44-.87.12-1.09.83-1.24,1.48h0c-.25-.65-.46.39-.57.66-.21.63.21,1-.52,1.38s0,1.9-.88,1.73c-.55-.3-1.63-.22-1.7-.88a.46.46,0,0,0-.61-.14c-.48-.35-.42-1.34-.35-1.93,0-1-1.51-.49-1.39-1.49,0-.34-.13-.16-.27-.39s-.18-.48-.5-.52c.62-.88-.42-.56-.81-1-.5-.68-1.35-1.21-1.75-2-.49-.11-.67-.54-.81-.92-1.34-1.27,1.46-1.4-1.08-2.44-1.18.6-1.25-.34-2.14-.9-1.46-.83-3-4.46,0-3.44,1.63,1-.2.9,1,1.48l.6,1,.81-.54c-.19-.21-.58-1-.87-1.07-.5,0-.48-.35-.25-.69-.63-1.23-2.4-2.19-2.53-3.6.64.76.83-.11.72-.77-.35-1.68-3.24-1-2.77-2.94-.33-1.62-2.58.08-3.53-.27-.53-.38-.56-1-1-1.33a22.12,22.12,0,0,0-2.07-1.66c-.43-.28.16-.92-.74-1.08-.45-.07-.59-.2-.25-.59-.12-1.12-2.48-1-2.94-1.86-.34-2.43.41-2.47-2.08-3.37-.4-.08-.84.66-.84-.22l0,0c0-.12-.3-.33-.39-.37,0-.39.84-.11,1-.11.44,0,.63-.48,1-.5.73,0,1.93.79,2.27-.3.43-.7.88-2,0-2.66-.19-.2-.14-.62-.39-.69a3.11,3.11,0,0,0-2.42-.16,2.71,2.71,0,0,1-.13-.44,1.2,1.2,0,0,0,.95-.65c.67-.79,2-.64,3-.76,0,.11-.45.44-.19.54s.61.84.69,1.16c.16.66-.93,1.48-.53,1.75,2.89.31.67,2.25,2.18,1.86a.73.73,0,0,0,.37.7c.11.13-.15.31,0,.54.72,1.18.6.27,1.61.12,0,0,0,0,0,0-.4-2,1.2-.92,1.37.34s1.75.93,2.52,1c.71-.11,2.41-.22,2-1.28-.21-.72,1.58-1,2.11-1.27,1.47-.82,1.82,1.27,1.89,2.32.88,4,2.5.07,3.84,1.92-.13.51.6,1.12.2,1.5-.24.17-.75,0-.86.39a4.71,4.71,0,0,0,1.8,3.28c.37.08.78-.52,1.3-.46.91.09.38.79.71,1.24,1.14,1.57-3.7,1.93,1.44,4.69a6.52,6.52,0,0,0,1,.19c.24,0,.69-.6.8-.2,0,.19-.07.25.12.39.59.25,1.66-.45,2-.91.11-.26-.53-.81-.68-1.09-.36-.68.5-.59.78-.86s1-1.77,1.57-1.58c.66-.19,1.36-1.3,2.37-.94.52,0-.14,1.1.23,1.59.51.67,1.45.2,2.21.4s1.11.09,1.82-.45c.38-.28,1-.14,1.1-.74,0-1.38,1.7-2.88,2.32-4.08.78-1.06-.63-2.92.81-3.28a2.48,2.48,0,0,0,1.35-1.4c.89.31.31,1.71.76,2.23.28.16.68.17.68.57s0,.62.42.45c.18-.07.43.23.67.22.66,0,.56-1,1.47-1,.15,0,1.06,0,.56-.4s.54-1.28.54-.39c0,.49-.28,1.33.29,1.58.14.14.73.35.55.57a12.36,12.36,0,0,0-1.69,2.06c-1,.82.92,1.7,1.59,1.4.34-.59.59-1.85,1.41-2.14.36,0,.64.23,1,0s.1-.88,1-.68c1,.47-.68.8-.39,1.49a1.66,1.66,0,0,0,.35,2.31c.41.09.64.5,1.1.5a2.89,2.89,0,0,0,1.74-1.26c.14-.35-.52-.81-.38-1.27,1.56-1.41,2.65.65,2.46,2.17-1.08,1.25-.74,3,1.18,2.72.56-.11-.06-1.35.22-1.46a4.15,4.15,0,0,0,3.19-2.61c.32-.6.73.64.81,1,.38,1.52-1.51,1.6-.28,3.23a5.83,5.83,0,0,1-1.24,2.67A1.42,1.42,0,0,0,110.76,83.55ZM63.09,59.42C62.23,59,63,57.85,63,57.05c0-.32,1.62-1,1.82-1.64h0c0,.22.84-.19,1-.24.55-.12.51-.78,1.17-.73.54.59.78.2,1.35-.08,1,.78.32,1.32-.17,2.19-.27.91-1,2.31-2.09,2.31C64.79,59.33,64.78,60.29,63.09,59.42Zm13.16-5.58a1.54,1.54,0,0,1-.22-.47c.4-.1.4-1.82,1.11-1.68s.35.7,1.27.13a5.31,5.31,0,0,0,.86-1.28c.67.74.57-.74,1.13.17.21.34.88-.09,1.29,0-.1,2.31-1.23.39-2.46,1.75-2.28-.37-1.21.66-2.37,1.72l0,0C76.61,54.55,76.32,54.07,76.25,53.84Zm14.49-3.57c-.28-.05-1.85-.49-1-.8.25,0,.18-.13.27-.31.62-.49-.1-.63.25-1.15.12-.16.2-.42.36-.54.47-.35,0,1.36,0,1.44.56-.14,1.33-.32.92.54-.06.21.13.71-.24.67C91.05,50.16,91,50.36,90.74,50.27ZM38,42.23c-.32,0-.85,0-.77.44a1.26,1.26,0,0,0,1.45-.29A1.41,1.41,0,0,0,38,42.23Zm-1.09.65c-.59,2.44-1.64.77-2.77,1.73-.32.54-.63.23-.5.9s.56,1.28,0,1.7c-1.14.51-2.8-1.08-1.45-2a6.63,6.63,0,0,1,.24-1.49c.28-.38,1.19-1,.32-1.3s-2-1.06-2.75-.13c-.65.54-1.84,0-2.61.12.11-.55-.22-1,.29-1.44s.1-.35.18-.72A2,2,0,0,1,29.53,40c2.24-.78,1.18-.44,3.1.43.56-.05.22.41.7.39a3.17,3.17,0,0,0,1.71.2c.29.06,0,.49.55.51.26,0,.51-.09.77-.08A1.59,1.59,0,0,1,36.86,42.88Z"/><path class="cls-2" d="M110.76,83.55c0,1.3,1.54,4.56-.58,4.63-1.21-.35-.84-2.14-2.06-2.56-.68-.34-2.45.57-3,1s-1.22,2-2,2.14c-4.69.39-6.71,1.76-5.8,6.78.38,1-1,.43-.28,1.4a12.41,12.41,0,0,1-2.05.88c-.18.17-.37.29-.56.06-.46-.66-1.42-.86-1.68-1.66.07-1,.71-2.42-.89-1.39-.85.76-.75-1-.94-1.42-.72-.66-4,0-4.23,1a3.15,3.15,0,0,1-.47,1.48c0,1,.56,2.08-.94,1.61-.15-.32-.52-1.44-.9-.68-.18.68,0,2.72-.95,2.67-.51-.53-.54-1.41-1.34-1.68-.54-.62,0-1.5-1-1.69-.24-.86-.57-.72-1.31-.44-.87.12-1.09.83-1.24,1.48h0c-.25-.65-.46.39-.57.66-.21.63.21,1-.52,1.38s0,1.9-.88,1.73c-.55-.3-1.63-.22-1.7-.88a.46.46,0,0,0-.61-.14c-.48-.35-.42-1.34-.35-1.93,0-1-1.51-.49-1.39-1.49,0-.34-.13-.16-.27-.39s-.18-.48-.5-.52c.62-.88-.42-.56-.81-1-.5-.68-1.35-1.21-1.75-2-.49-.11-.67-.54-.81-.92-1.34-1.27,1.46-1.4-1.08-2.44-1.18.6-1.25-.34-2.14-.9-1.46-.83-3-4.46,0-3.44,1.63,1-.2.9,1,1.48l.6,1,.81-.54c-.19-.21-.58-1-.87-1.07-.5,0-.48-.35-.25-.69-.63-1.23-2.4-2.19-2.53-3.6.64.76.83-.11.72-.77-.35-1.68-3.24-1-2.77-2.94-.33-1.62-2.58.08-3.53-.27-.53-.38-.56-1-1-1.33a22.12,22.12,0,0,0-2.07-1.66c-.43-.28.16-.92-.74-1.08-.45-.07-.59-.2-.25-.59-.12-1.12-2.48-1-2.94-1.86-.34-2.43.41-2.47-2.08-3.37-.4-.08-.84.66-.84-.22l0,0c0-.12-.3-.33-.39-.37,0-.39.84-.11,1-.11.44,0,.63-.48,1-.5.73,0,1.93.79,2.27-.3.43-.7.88-2,0-2.66-.19-.2-.14-.62-.39-.69a3.11,3.11,0,0,0-2.42-.16,2.71,2.71,0,0,1-.13-.44,1.2,1.2,0,0,0,.95-.65c.67-.79,2-.64,3-.76,0,.11-.45.44-.19.54s.61.84.69,1.16c.16.66-.93,1.48-.53,1.75,2.89.31.67,2.25,2.18,1.86a.73.73,0,0,0,.37.7c.11.13-.15.31,0,.54.72,1.18.6.27,1.61.12,0,0,0,0,0,0-.4-2,1.2-.92,1.37.34s1.75.93,2.52,1c.71-.11,2.41-.22,2-1.28-.21-.72,1.58-1,2.11-1.27,1.47-.82,1.82,1.27,1.89,2.32.88,4,2.5.07,3.84,1.92-.13.51.6,1.12.2,1.5-.24.17-.75,0-.86.39a4.71,4.71,0,0,0,1.8,3.28c.37.08.78-.52,1.3-.46.91.09.38.79.71,1.24,1.14,1.57-3.7,1.93,1.44,4.69a6.52,6.52,0,0,0,1,.19c.24,0,.69-.6.8-.2,0,.19-.07.25.12.39.59.25,1.66-.45,2-.91.11-.26-.53-.81-.68-1.09-.36-.68.5-.59.78-.86s1-1.77,1.57-1.58c.66-.19,1.36-1.3,2.37-.94.52,0-.14,1.1.23,1.59.51.67,1.45.2,2.21.4s1.11.09,1.82-.45c.38-.28,1-.14,1.1-.74,0-1.38,1.7-2.88,2.32-4.08.78-1.06-.63-2.92.81-3.28a2.48,2.48,0,0,0,1.35-1.4c.89.31.31,1.71.76,2.23.28.16.68.17.68.57s0,.62.42.45c.18-.07.43.23.67.22.66,0,.56-1,1.47-1,.15,0,1.06,0,.56-.4s.54-1.28.54-.39c0,.49-.28,1.33.29,1.58.14.14.73.35.55.57a12.36,12.36,0,0,0-1.69,2.06c-1,.82.92,1.7,1.59,1.4.34-.59.59-1.85,1.41-2.14.36,0,.64.23,1,0s.1-.88,1-.68c1,.47-.68.8-.39,1.49a1.66,1.66,0,0,0,.35,2.31c.41.09.64.5,1.1.5a2.89,2.89,0,0,0,1.74-1.26c.14-.35-.52-.81-.38-1.27,1.56-1.41,2.65.65,2.46,2.17-1.08,1.25-.74,3,1.18,2.72.56-.11-.06-1.35.22-1.46a4.15,4.15,0,0,0,3.19-2.61c.32-.6.73.64.81,1,.38,1.52-1.51,1.6-.28,3.23a5.83,5.83,0,0,1-1.24,2.67A1.42,1.42,0,0,0,110.76,83.55ZM63.09,59.42C62.23,59,63,57.85,63,57.05c0-.32,1.62-1,1.82-1.64h0c0,.22.84-.19,1-.24.55-.12.51-.78,1.17-.73.54.59.78.2,1.35-.08,1,.78.32,1.32-.17,2.19-.27.91-1,2.31-2.09,2.31C64.79,59.33,64.78,60.29,63.09,59.42Zm13.16-5.58a1.54,1.54,0,0,1-.22-.47c.4-.1.4-1.82,1.11-1.68s.35.7,1.27.13a5.31,5.31,0,0,0,.86-1.28c.67.74.57-.74,1.13.17.21.34.88-.09,1.29,0-.1,2.31-1.23.39-2.46,1.75-2.28-.37-1.21.66-2.37,1.72l0,0C76.61,54.55,76.32,54.07,76.25,53.84Zm14.49-3.57c-.28-.05-1.85-.49-1-.8.25,0,.18-.13.27-.31.62-.49-.1-.63.25-1.15.12-.16.2-.42.36-.54.47-.35,0,1.36,0,1.44.56-.14,1.33-.32.92.54-.06.21.13.71-.24.67C91.05,50.16,91,50.36,90.74,50.27ZM36.86,42.88c-.59,2.44-1.64.77-2.77,1.73-.32.54-.63.23-.5.9s.56,1.28,0,1.7c-1.14.51-2.8-1.08-1.45-2a6.63,6.63,0,0,1,.24-1.49c.28-.38,1.19-1,.32-1.3s-2-1.06-2.75-.13c-.65.54-1.84,0-2.61.12.11-.55-.22-1,.29-1.44s.1-.35.18-.72A2,2,0,0,1,29.53,40c2.24-.78,1.18-.44,3.1.43.56-.05.22.41.7.39a3.17,3.17,0,0,0,1.71.2c.29.06,0,.49.55.51.26,0,.51-.09.77-.08A1.59,1.59,0,0,1,36.86,42.88Z"/></g></svg>