<svg xmlns="http://www.w3.org/2000/svg" viewBox="0 0 140.5 140.5"><link xmlns="http://www.w3.org/1999/xhtml" rel="stylesheet" href="../svg.css" type="text/css"/><defs><style>.cls-1,.cls-2{fill:none;stroke:#525252;stroke-width:0.5px;}.cls-1{stroke-linejoin:round;}</style></defs><g id="SPM" data-name="975 SAINT-PIERRE-ET-MIQUELON"><path class="cls-1" d="M86.89,115.79c.17-.29-.22-.67-.44-.38C86.46,115.62,86.7,116.25,86.89,115.79Zm-2.73-12.74c.71-.11,1.34-.61,2-.77.23-.22.3-.13.57-.07.54.12,1.13-.38,1.51-.68h0s.08.06.1.11.22.27.42.34.1.76.6.43c.73.09.54,1.54.83,1.89.13.07,0,.7-.08.82.45.85-.49,1.21-1,1.67-.32.38-2.24,2-1,2.17v0c-.21.27-.27.14-.2.53-.21.57-1.33,1-1.36,1.73v0c.57-.21,1.3.17,1.86-.16s.75,0,1.24,0l0,0c-.21.37-.84,1-.18,1.28a1.23,1.23,0,0,0,.94.24,1.32,1.32,0,0,1,.41.14c-.07.37.17.94-.32,1.08-.33.15-.2.37-.58.33s-.62-.11-.72.22-.66.23-.87.14c-.23.11-.11.56-.36.45s-.55-.07-.6-.28c1.46.45-.13-1-.53-.35,0,.4,0,.82-.54.72a1.74,1.74,0,0,1-1,.2c-.17,0-.24.34-.48.34-.11-.2-.55-.17-.67-.32-.36-.77,0-1.22.12-2-.55-.82-1.39.38-1.7.9,0,.19,0,.38-.4.32-1-.18-2.59-.58-2.19,1,.14.41.13.42-.21.62s-.19.55-.66.69.45-.7-.73-.76a1.37,1.37,0,0,1-.18-.63c.11-.15.4-.16.35-.41,0-.07,0-.28-.11-.29-.29-.07-.09-.12-.14-.37s-.33-.29-.47-.49c-.38,0-.66.51-1,.19-.12,0-.81.12-.7-.16s-.14-.54,0-.69,1.21.06,1.11-.31-.2-.22.08-.31.35-.58.48-.82c.2,0,.77.08.34-.28a11.12,11.12,0,0,1,1.09-1.71c.25-.36-.19-.73.06-1.08.07-.06.37-.49.46-.33.2.35.18-.14.28-.24s.35-.18.45-.32-.12-.2-.17-.35.51-.24.72-.38c.51-.6-.24-.22-.25-.53,0-.09,0-.25.09-.25.32,0,.29-.07.5-.27.53-.27.47-.87,1.09-1a1.46,1.46,0,0,0,.53-.65.87.87,0,0,0,.68-.38c.08-.08-.13-.15-.18-.21-.25-.28.18-.15.3-.3s.1-.3.16-.43ZM75.48,87.26c.67.13.56.91,1,1.27.08.41-.38.55-.07.85-.19.3,0,.27.27.3a3.31,3.31,0,0,1-.15.95c.09.32-.47.64-.17.94.12.12,0,.13,0,.24a1.29,1.29,0,0,1-.52,1.83c.68,1.15-1.18,1.81-1.62,2.61s-1.15,1-1.61,1.53c-.12.41-.52.16-.76.21.22.75-1.1.93-1.26,1.69-.3.55-1,.24-1.45.6a2.09,2.09,0,0,1-1.09.45c-.87,1.8-2.8,2.39-4.21,3.59a7.37,7.37,0,0,0-1.67,2.13c-.06.18-.16.74-.29.72-.34-.06-.13.08-.39.26s-.41-.31-.44-.42h0c-.16.18-3.06,3.54-2.3,1.72.1-.24-.33-.1-.17-.4.32-.48.2-1.09-.4-.89,0-.1.15-.19.16-.25,0-.23-.07-.13.11-.34s.06-.34-.15-.37-.18-.14-.37-.25c-.58-.32-.43.13-.85.13,0-.2-.11-.8-.37-.76-.91-1.17-1.26.53-1.74,1.18-.07-.19.16-1.08-.07-1s-.1-.07-.12-.29a2.84,2.84,0,0,0-.28-.72c-.11-.15-.24.15-.24-.16a1.08,1.08,0,0,1,.18-.46c.58-.32.09-1,.21-1.57s.73-.64.3-1.25l0,0c.67-1.72-.34-3-2.15-3-1,0-1.43.57-2.41.53-.36.1-.27,1.88-.62.9a5.24,5.24,0,0,0,.43-1.59c-.36-.27-.33-.39-.37-.79-.29-.21-.19-.4-.17-.72s.18-.16.39-.2c0-.14-.13-.19-.15-.28,1-.16,1-1.25,1.53-1.63,0,0,0,0,0-.06.37-.51.91-.78,1.14-1.39.11-.14.35-.06.29-.34s.47-.33.24-.57.59-.54.69-.66c.68-.45,1.62-.44,2.32-.89.4-.47.69-.28,1.16-.26.28-.08.37-.33.46-.57s.57-.23.77-.47c.52-.75.7-1.55,1.23-2.33-.11-7.84,2.42.18,2.41-9.84A41.82,41.82,0,0,0,60,64.31c-.83-1.71-2.57-9.57-4.89-8.71h0c-.05-.49-.47-.78-.83-1.07s-.48-.76-.81-1.06a.91.91,0,0,1-.17-1A5.92,5.92,0,0,1,52.89,49c-.08-2.31-1.46-4.49.12-6.66a27.81,27.81,0,0,0-1.25-8.58c-.46-.7-1.23.09-1.53-.8a1.45,1.45,0,0,0,.18-1.14c-.27-.8.94-1.2.88-1.94.18-.89.57-1,.59-1.8,0-.14.23,0,.19-.19s-.11-.35,0-.39c.59,0,.93-.38,1.25-.8,0-.19.1,0,.28-.06.48-.06.2-.43.72-.11A1.63,1.63,0,0,0,56.11,26c.2-.25.89-.14.66-.55-.12-.21.23-.22.33-.34.5.12.95-.39,1.18-.76s.58-.21.76-.33.06-.3.32-.42h0A7.75,7.75,0,0,1,59.55,26a.2.2,0,0,0,.09-.07c.45.25-.71.69-1.25.87-.25.21-.3.43-.74.34-.15.12-.29.38-.46.47a2.53,2.53,0,0,0-.53,1,2.93,2.93,0,0,1-1.21.73c0,.07-.12.16-.13.22-.35.25-1.18.08-1.56.4-1,1.44,0,3.24.84,4.5.32.17.47.51.89.51,0,.12-.43.37-.45.5-1.45-.11-2.68-.57-2.08,1.57a17.86,17.86,0,0,1,.53,4.72h0a16.57,16.57,0,0,0,.6-1.63c-.36-.93,1-1.68,1.35-2.5a25.16,25.16,0,0,1,2.1-2.89c.47-.11.63-.56,1.12-.37,1.16.15,1.63,1.72,2.89,1.67.06,0,.15.27.19.34.75,1.56,3.59,3.37,5.38,4.2,1.51.65,3.45.93,4.87,1.71.8.56,2.06.83,2.23,1.9,0,.84.1,1.79.13,2.61-.11.38-.22,1.4.34,1.41,0,.33.14.46-.19.6a6.85,6.85,0,0,0-.34.85c.5,0-.16.45-.23.69a11.64,11.64,0,0,0-.79,2.33,20.51,20.51,0,0,0-1.62,5c-.45.9-1.34,1.54-1.44,2.58h0c-.26-.6-.95,0-1.32.22a4.6,4.6,0,0,0-1.37,1,1.4,1.4,0,0,1-1.87.66c.64-.24,1.19-1.94,1.81-1.54.53-.29.19-1.09,0-1.5,0-.55-.73-.44-.65-.94s.24-.81.4-1.21a4.41,4.41,0,0,1-1.47.36c-.4.12-.4-.33-.77.08-.1.11-.4.21-.28.43.23.39.63-.52.63.07,0,.13-.57.08-.67.08-.18.53-.83.16-1.26.14-.34-.17-.33.37-.69-.06-1.45-.93-3.86-.78-5.3-1.7-.15.2,1.52,3.13,1.53,3.73.78,2.69,2.33,7.42,4.73,3.3,1-.55.72-1.42,1.22.2.2.18.33.24.44-.06,1.5-.41.65.82.17,1.5-2.62,4-4,11.35-1.5,15.62.1.78,1.1.65,1.63.68a3,3,0,0,0,1.12.48v0c.06.51,1,1.39,1.44,1.72s.53-.09.86-.09.32-.13.34.18c0,.5.8-.38.85-.53.05-.89.33.52,1.08-.22.37-.2.19-.33.39.07A7.36,7.36,0,0,0,74,85.24c.16,0,.21,0,.28-.14s.54-.14.73-.45c.8-.26-.18.54.13.73.1.06-.06.18-.07.3,0,.33.29.32.3.53a2.12,2.12,0,0,0-.07.71Z"/></g></svg>