<svg xmlns="http://www.w3.org/2000/svg" viewBox="0 0 140.5 140.5"><link xmlns="http://www.w3.org/1999/xhtml" rel="stylesheet" href="../svg.css" type="text/css"/><defs><style>.cls-1{fill:none;stroke:#525252;stroke-width:0.5px;}</style></defs><g id="MAF" data-name="978 SAINT-MARTIN"><path class="cls-1" d="M112.09,44.38c-1.5.21-3,.88-4.49.79-.57.23-2.22,2.43-2.4,1.25A3.11,3.11,0,0,0,106,43.7c.29-1,2.45-.27,3.16-1.61.28-1.37,1.28-1.17,2.61-1.51.68.45,1.74-.17,2.66-.14-.62.75-2.93,1.13-1.11,2.11.08.47.7.05,1.06.32C112.55,43.58,113.57,44.72,112.09,44.38ZM78.78,93.11c-.53,1.2.89,2.5.37,3.74-.29.94-.82,2.33-.23,3.21.54-.13,1.09-1.07,1.63-.33a4.07,4.07,0,0,1,1.68-1.9c.28-.42.1-1.28.64-1.45,1.67.16,1.49-.24,2.1-1.48.79-.37.68-2.47,2-1.74,1-.47.17-.7,0-1.43.06-.36-.29-.28-.53-.41-.34-.94,2-1.95,2.42-2.86,1,.37,0-.6,1.36-1.88-2.56,0-1.54-1.75-1-3.3-.22-.07-.73,0-.48-.35.38-.52.31.77.93-.21,1.59-.31,1.67-.68,2-2.07,1.72-.86-.91-3,.62-4,.17-.11,1.24-.47,1-.77-.39-.92-1,.74-1.46.33-.45-.94-2-1.94.2-1.7.63.07.56.27,1,.6s.79-.34.9.11c-.74,1.48,1.82.62,1-.58-.77-1.64-2.91-2.63-.59-3.9.45-1.24-1-1.62-1.87-1.07-.28-.83-1.54-1.63-2-2.53-.54-1.39,1.7-5,2.46-2.42.66-.6,1.4-2.91,2.13-3.57-2.8.73-8.89-6.35-5.84-6.61.25-.89-.71-1.77.16-2.41.26-.64-3.17-2.11,0-3.63a1.25,1.25,0,0,0,2.23-1.11c-1.81.35-1.5-3.24-1.37-4.36,1.21-1.77.27-1-1-1.27-1.72-1.34-1.59-.71-3.45-.42-.67.16-1,.86-1.73-.07-.8.77-2.65-.66-2.53.88C79.09,43.64,83,45.68,80.51,46c-1.25.29-1-2-2.26-1.15-.45.38-.86-.4-1.32-.59-3.16-2.29-2.25,2.33-2.5,4.26-.45.33-.68.46,0,.51-.85,2.89-4.64,4.87-7.39,3.13-.65-1.78-.51-.29-1.72-.18-.32.11.08.78,0,1s.5.37.15.41c-.64,0-2.2-.53-1.08.53-.12,3.52-1,1.33-2.1,2.82-1.74,1-.85,2.07-3.43,2.62,1.33,4.07,4.3,3.87-.87,8.15,1.56,2-2.79,3.15-4.13,3.88-1.13,1.8-1.87,1.5-3.79,1.44-2.34-.54-8.8-3.16-5-5.66.25-.66-.88-1,0-1.84.36-.34.78-1.06,0-1.09-1.12,0-.52.53-1,1.14-.82,1.48-2.55.75-2.67,2.07-.71,1.33-2.56,1.16-3.54,2.25-1.4-3-6.24-4.51-9.15-2.9-.85.71,1.77,1.65.71,1.78S28,70.25,26.94,70.5c-3.78,3.08,5.55,1.67,6,5-1.06.56-.31,1.3.6,1.3.51.35.93,1.27,1.53,1.51s2.42-.2,2.17.89c1.11.32,2.14.29,2.57,1.61.22.42-.41,0-.46.26a1.48,1.48,0,0,0,1.39,1.76c1.35-.21.46,1.86,2.08,1.94,1.9.34.69,2,1.66,2.37,1.18.09-1.77-4.11,3.61-4.2,1.2,0,3.4.07,4.35.92.66.87,4.21,3.34,1.72,3.86-1.66,2.44,1.72.55,1.6,3.3.12.5.32.86.76.4,7.46-3.08,3.11,4.22,6.28,2.13,1.76-4.35,1.91,4.26,5.3-.08,4.92-.44,1.54,1.33,3.09,2.88,1.43-.36.1-2.28.09-3.18C71.55,90.31,78.35,90.62,78.78,93.11Z"/></g></svg>