<?xml version="1.0" encoding="UTF-8" standalone="no"?>
<svg
   xmlns:xhtml="http://www.w3.org/1999/xhtml"
   xmlns:dc="http://purl.org/dc/elements/1.1/"
   xmlns:cc="http://creativecommons.org/ns#"
   xmlns:rdf="http://www.w3.org/1999/02/22-rdf-syntax-ns#"
   xmlns:svg="http://www.w3.org/2000/svg"
   xmlns="http://www.w3.org/2000/svg"
   xmlns:sodipodi="http://sodipodi.sourceforge.net/DTD/sodipodi-0.dtd"
   xmlns:inkscape="http://www.inkscape.org/namespaces/inkscape"
   version="1.1"
   id="Calque_1"
   x="0px"
   y="0px"
   viewBox="0 0 94.5 96.3"
   style="enable-background:new 0 0 94.5 96.3;"
   xml:space="preserve"
   sodipodi:docname="taaf.svg"
   inkscape:version="1.0.2-2 (e86c870879, 2021-01-15)"><metadata
   id="metadata84"><rdf:RDF><cc:Work
       rdf:about=""><dc:format>image/svg+xml</dc:format><dc:type
         rdf:resource="http://purl.org/dc/dcmitype/StillImage" /><dc:title></dc:title></cc:Work></rdf:RDF></metadata><defs
   id="defs82" /><sodipodi:namedview
   pagecolor="#ffffff"
   bordercolor="#666666"
   borderopacity="1"
   objecttolerance="10"
   gridtolerance="10"
   guidetolerance="10"
   inkscape:pageopacity="0"
   inkscape:pageshadow="2"
   inkscape:window-width="1814"
   inkscape:window-height="1044"
   id="namedview80"
   showgrid="false"
   inkscape:zoom="4.7195767"
   inkscape:cx="34.513506"
   inkscape:cy="62.972192"
   inkscape:window-x="0"
   inkscape:window-y="0"
   inkscape:window-maximized="0"
   inkscape:current-layer="Calque_1" />
	 <xhtml:link
   rel="stylesheet"
   href="../svg.css"
   type="text/css" />
<style
   type="text/css"
   id="style48">
	.cls-1{fill:#FFFFFF;}
	.st1{fill:none;stroke:#878888;}
	.st2{fill:#878888;}
</style>
<g
   id="ATF"
   transform="matrix(0.61860986,0,0,0.61860986,18.077893,18.306726)">
	<circle
   class="cls-1"
   cx="47.400002"
   cy="48"
   r="35"
   id="circle50" />
	<circle
   class="st1"
   cx="47.400002"
   cy="48"
   r="34.5"
   id="circle52" />
	<g
   transform="translate(12.036,13.027)">
		<path
   class="st2"
   d="m 23.7,16.9 2.6,4.1 h 7.3 V 35.2 L 28,26.6 20.7,38.3 h 3.6 l 3.8,-6.7 7.7,13.9 7.7,-13.9 3.8,6.7 h 3.6 L 43.6,26.6 38,35.2 v -7.8 h 3.3 l 2.4,-3.9 H 38 V 21 h 7.3 l 2.6,-4.1 z m 8.5,17.4 H 24.3 V 37 h 7.9 z m 15.1,0 H 39.4 V 37 h 7.9 z"
   id="path54" />
		<g
   transform="translate(19.41,35.279)">
			<path
   class="st2"
   d="m 16.4,13 2.4,7.5 -6.4,-4.7 h 7.9 l -6.4,4.7 z"
   id="path56" />
		</g>
		<g
   transform="translate(10.494,28.542)">
			<path
   class="st2"
   d="m 16.4,13 2.4,7.5 -6.4,-4.7 h 7.9 l -6.4,4.7 z"
   id="path60" />
		</g>
		<g
   transform="translate(28.326,28.542)">
			<path
   class="st2"
   d="m 16.4,13 2.4,7.5 -6.4,-4.7 h 7.9 l -6.4,4.7 z"
   id="path64" />
		</g>
		<g
   transform="translate(2.964,8.53)">
			<path
   class="st2"
   d="m 16.4,13 2.4,7.5 -6.4,-4.7 h 7.9 l -6.4,4.7 z"
   id="path68" />
		</g>
		<g
   transform="translate(35.856,8.53)">
			<path
   class="st2"
   d="m 16.4,13 2.4,7.5 -6.4,-4.7 h 7.9 l -6.4,4.7 z"
   id="path72" />
		</g>
	</g>
</g>
</svg>
