<?xml version="1.0" encoding="utf-8"?>
<!-- Generator: Adobe Illustrator 24.1.1, SVG Export Plug-In . SVG Version: 6.00 Build 0)  -->
<svg version="1.1" id="Calque_1" xmlns="http://www.w3.org/2000/svg" xmlns:xlink="http://www.w3.org/1999/xlink" x="0px" y="0px"
	 viewBox="0 0 94.5 96.3" style="enable-background:new 0 0 94.5 96.3;" xml:space="preserve">
	 <link xmlns="http://www.w3.org/1999/xhtml" rel="stylesheet" href="../svg.css" type="text/css"/>
<style type="text/css">
	.cls-1{fill:#FFFFFF;}
	.st1{fill:none;stroke:#878888;}
	.st2{fill:#878888;}
</style>
<g id="ATF">
	<circle class="cls-1" cx="47.4" cy="48" r="35"/>
	<circle class="st1" cx="47.4" cy="48" r="34.5"/>
	<g transform="translate(12.036 13.027)">
		<path class="st2" d="M23.7,16.9l2.6,4.1h7.3v14.2L28,26.6l-7.3,11.7h3.6l3.8-6.7l7.7,13.9l7.7-13.9l3.8,6.7h3.6
			l-7.3-11.7L38,35.2v-7.8h3.3l2.4-3.9H38V21h7.3l2.6-4.1H23.7z M32.2,34.3h-7.9V37h7.9V34.3z M47.3,34.3h-7.9V37h7.9V34.3z"/>
		<g transform="translate(19.41 35.279)">
			<path class="st2" d="M16.4,13l2.4,7.5l-6.4-4.7h7.9l-6.4,4.7L16.4,13z"/>
		</g>
		<g transform="translate(10.494 28.542)">
			<path class="st2" d="M16.4,13l2.4,7.5l-6.4-4.7h7.9l-6.4,4.7L16.4,13z"/>
		</g>
		<g transform="translate(28.326 28.542)">
			<path class="st2" d="M16.4,13l2.4,7.5l-6.4-4.7h7.9l-6.4,4.7L16.4,13z"/>
		</g>
		<g transform="translate(2.964 8.53)">
			<path class="st2" d="M16.4,13l2.4,7.5l-6.4-4.7h7.9l-6.4,4.7L16.4,13z"/>
		</g>
		<g transform="translate(35.856 8.53)">
			<path class="st2" d="M16.4,13l2.4,7.5l-6.4-4.7h7.9l-6.4,4.7L16.4,13z"/>
		</g>
	</g>
</g>
</svg>
