<svg xmlns="http://www.w3.org/2000/svg" viewBox="0 0 140.5 140.5"><link xmlns="http://www.w3.org/1999/xhtml" rel="stylesheet" href="../svg.css" type="text/css"/><defs><style>.cls-1{fill:none;stroke:#525252;stroke-width:0.5px;}</style></defs><g id="WLF" data-name="986  WALLIS ET FUTUNA"><path class="cls-1" d="M74.64,98.74c1.2-.42,10.31-.51,9.34-2-.41.94-1.68-1.15-1.65-1.68-1-.5-2.81-.51-3.93-.83-1.45-.82-3.89-.75-4.48-2.7A5.59,5.59,0,0,1,73.57,90c.2-.94.08-1.47-.9-1.59-.81,0-1.33-.71-2-1-.68.27-1.39-.7-2.06-.69-.83-.26-1.55.26-2.38-.11a16.76,16.76,0,0,1-2.53.11c-1-.66-2.2.36-3.17.54-7.3,1.85-3,2.92-6.15,4.53-1.89,1.76-.16,2,.66,3.42a1.32,1.32,0,0,0,.67.45,6.53,6.53,0,0,1,6.35,3c1,.85-.73,2.43.3,3.31.48.49,1.73.23,1.66,1.06.34,0,1.12-.55,1.58-.52.59-.24.93-.86,1.55-1.09C69.73,100.9,72.05,99.3,74.64,98.74ZM60.09,79.65c1.36.65,2.92,0,4.22-.06.71,0,1.74.13,1.75-.84l0,0c-.82-.42-1.38,0-2.08-.77-.92-.14-2.11,0-2.54-1.07-.71-.84-1.64-2.2-2.28-3.06,0-.31-1.14-.23-1.35-.44s-.42-.53-.63-.59c-.65.53-1.48-.56-1.94-1-2-.2-2.41-1.68-3.53-3a20.57,20.57,0,0,1-2.62-3.06c-.35-1.34-.57-2.78-1.7-3.77-.62-1.5-2.72-2.61-3-4.16-.51-1.14-1.6-2.73-2.1-4,1.13-1.56-1.36-.76-1.29-1.94.18-.34-.21-.32-.42-.58s-.09-.68-.56-1,0-.26-.22-.55a1.07,1.07,0,0,1-.84-.49c-.17-.12-.49.13-.65.17-.66.18-.7-.35-.93-.77a7.61,7.61,0,0,0-2.31-2.17c-.66-.41-1.22.21-1.68-.44-.36-.26-.89,0-1-.58-.07-1-.52-2.06-.13-3.09-.31-.18-1,.25-1.38-.13s-.56.14-.85.23a3.23,3.23,0,0,1-2.29-1.94c-1.13-1.34-3.23-4.87-4.76-2.08-.73.42-.47,1.08-.68,1.71a4,4,0,0,0-1.46,2.21,3,3,0,0,0,.46,1.28c.12.62,0,1.3.09,2,.32,1-.12,2,.21,2.91a17.9,17.9,0,0,0,.69,3.92c0,.2.06.52-.11.67s-.18.08-.05.28c.5,1.43.11,3,.17,4.44-.59.39-.23.63.26,1,.12.84,1,1.86,1.93,1.76,1.13,0,1.08,1.48,0,1.61.16.1.35,0,.53.08,0,.15-.14.19,0,.3.49.35.09.85-.32,1,0,.08.1.38.09.52a4.61,4.61,0,0,0,2.66,2.81c.15.37.29.88.75,1a3.29,3.29,0,0,1,.74.44c.44.32-.1.58.69.37.87,0,1.09,1,1.19,1.7.2.1.49.13.57.39.29.22.5.09.83.13.49.11.92.53,1.52.56.14,0,.65.6.73.33s.9-1,1.24-.61a28.13,28.13,0,0,0,4.26,1.6c1.41.58,2.6,1.82,4.26,1.81,1.11-.3,2.12.35,3.17-.19,2.15-.66,2.93,1.77,4.5,2.55C54.2,78.26,57.51,78.82,60.09,79.65Z"/><path class="cls-1" d="M110.16,97.51c.93.8,1.64-.25,2.17-.91.38-.31.91-.28,1.25-.59.7,0,.68-.67.79-1.2.29-.47-1.7-1.79-2.23-1.88-2.2,1.43-4.26-1.24-2-2.76.38-.26.22-.35-.19-.35-.62.05-1.69,1.35-1.82.17.33-.43.92-.36.65-1-1.41-.64,1.21-2.06,1-2.66-1.49-.37-.64-3-.07-4,.12-.55,1.4-.35.9-1-1-.51-1.62-1.56-.6-2.49.44,0,.4-.59.74,0,1.79,1.61,1.76-.44,1.75-1.7-.31-.08-.26-.59-.31-.85-1.85-.57-.47-2.28.06-3.45,1-.65,1.38-3.39,2.7-2.8.29-.46.9-.47,1.13-.94.52-2,4.3-6.24,3.49-7.71,0-.17-.09-.47-.29-.48-.95-.11-.47-1.56-.76-2.21-.57-4.2-3.65-1.33-4.6-4.39,0-.36-.41-.64-.64-.87-1-.79-.49-2.57-.92-3.61-.46-.82-1.36-1.5-1.87-2.23a9.52,9.52,0,0,0-.3-2.43c-.41,0-.75-.55-.86-1-.5-.47-1.17.21-1.63-.39s-2.25-1.71-2.84-2.2h0c-1.83,0-3.52,1.19-5.2,1.83-1.63-.14-.54,1-1.46,1.77-.46.41-.82,1.58-1.54,1.36a9.1,9.1,0,0,0-.67,1,7.62,7.62,0,0,1-.62.87c-.32.38.41.31.39.75,0,.88-.81,1.64-.69,2.49.07.36-.39,1.07-.55,1.41s.2.84,0,1.29c-.08.63-.48,1.67-1.17,1.77-.19,1,.41,2.15-.12,3.12-.92.94,1.23,1.45,1,2.5a5.32,5.32,0,0,1-.41,2.49,5.55,5.55,0,0,1,0,2.86c-.1.63-.42.13-.67.38a2.44,2.44,0,0,1-2,2c-.47.51-2.06.31-2.75.53s-1.35.88-2.15,1.13c-.92-.28-1.82.57-2.78.81-.71-.06-.43.86-.36,1.28.42.69.24,1.48.59,2.17.09.3,0,.35.23.62.49.64-.1,1.34-.32,2-.64.31-.62,1.61-.07,2.09a15.09,15.09,0,0,1,.71,2.09l0,0c.22,0,.17.27.31.38.87.5,1.82-.25,2.66.15.49,1.16,1.59-.12,2.46,0l0,0a1.58,1.58,0,0,0,.49,2c.39.31.78-.23,1.06.12s.87,1,1.49.66c.51-.47,1.32-.5,1.16.37-.19.6.07,1.24-.23,1.85,0,.41.63.72.88,1,.38-.23.38.27.77.22.15,0,.41-.08.45.13.49,1.34.46,2.77,1.48,3.85-.24.85-1.24,1.47-.84,2.56a4.3,4.3,0,0,0,1.53,2,3.65,3.65,0,0,1,2.52.92c.27.4,0,.36.57.36.22,0,.26.23.45.3.62.22,1.27-.52,1.24-1.09-.12-.78.79-1,1.12-1.6A2.29,2.29,0,0,1,105.22,95c.72-.09.55.57,1.06.7a3.49,3.49,0,0,0,1.44,0,1.37,1.37,0,0,1,1.13.92C109.16,97.2,109.75,97.07,110.16,97.51Z"/></g></svg>